<svg id="Group_7820" data-name="Group 7820" xmlns="http://www.w3.org/2000/svg" xmlns:xlink="http://www.w3.org/1999/xlink" width="639.885" height="642.493" viewBox="0 0 639.885 642.493">
  <defs>
    <clipPath id="clip-path">
      <rect id="Rectangle_527" data-name="Rectangle 527" width="639.885" height="642.493" fill="#2477c1"/>
    </clipPath>
  </defs>
  <g id="Group_643" data-name="Group 643" clip-path="url(#clip-path)">
    <path id="Path_305" data-name="Path 305" d="M283.822,617.875a.12.12,0,0,1-.038,0l-62.543-12.3a.192.192,0,0,1-.138-.109.2.2,0,0,1,.01-.179l3.17-5.277L167.9,583.088l-.006,0-.017-.008,0,0h0s.012,0,0,0l0,0,0,0-.021-.013L98.043,531.6h0l0,0,0,0v0h0s.012,0,0,0l0,0h0l-.006,0,0,0,0,0,0,0v0h0l0,0h0v0l0,0h0v0l0-.006,0,0L41.016,455.067a.191.191,0,0,1-.017-.2.2.2,0,0,1,.177-.1l14.15.47L13.677,380.738a.2.2,0,0,1-.023-.1v-.006a.124.124,0,0,1,.008-.038l43.87-149.3L7.665,284.913a.192.192,0,0,1-.328-.171l16.472-74.926a.174.174,0,0,1,.023-.06l0,0v0L95.8,93.432a.1.1,0,0,1,.027-.033v0l.015-.015,0,0,.01-.006,73.5-51.7.008,0,0,0,0,0a.213.213,0,0,1,.036-.017l84.2-30.4.029-.01.038,0,98.97-2.573.029,0h0l.025,0,74.9,17.061.029.008,0,0,.029.012,51.6,29.424.029.021,58.454,49.22a.13.13,0,0,1,.036.042l48.751,70.393.019.031v0l.006.012L603,217a.191.191,0,0,1-.319.2l-16.251-17.724-.18,33.055,25.44,11.614a.185.185,0,0,1,.108.15l7.257,53.631a.136.136,0,0,1,0,.048l-.006.027L599.73,379.449l10.934,5.9a.194.194,0,0,1,.084.24l-30.956,77.882,0,0,0,0v0h0v0a.354.354,0,0,1-.021.035l-54.589,71.247v0l0,0,0,0h0v0a.2.2,0,0,1-.038.031L460.2,581.656a.2.2,0,0,1-.044.025L389.08,609.891a.186.186,0,0,1-.24-.088l-6.529-12.138-26.67,5.473-4.417,13.822a.2.2,0,0,1-.182.134l-67.215.781Zm71.387-14.65-69.383,14.243,65.074-.759Zm-130.345-3.439,58.723,17.626L275.93,566.97l-34.346,4.972Zm134.5-44.794-74.83,62.351,70.813-14.536,11.082-34.678ZM276.31,566.916l7.652,50.4,74.815-62.337Zm-54.727,38.338L280,616.737l-55.336-16.61Zm161.123-7.669,6.393,11.886,68.887-27.339ZM366.681,568.6l-10.905,34.119,26.346-5.406ZM168.822,582.963l55.664,16.708,16.606-27.659-24.708,3.574Zm198.022-14.874,15.671,29.142,76.735-15.752-89.1-23.731ZM155.109,552.827l12.962,29.866,47.528-7.372ZM99.366,532.1l68.127,50.226-12.885-29.685Zm270.9,25.284L459.709,581.2,440.393,545.09l-68.862,8.332Zm99.358-15.832-9.233,39.5,63.918-46.113ZM440.8,545.038l19.214,35.924,9.2-39.361ZM200.769,495.21l15.74,79.973,24.838-3.6,28.086-46.774ZM154.9,552.339,216.1,575.1l-15.761-80.073-86.509-37.3Zm114.7-27.062-27.761,46.238,34.033-4.924Zm90.2,29.718,6.79,12.626,3.186-9.968ZM269.948,525l6.3,41.533,82.34-11.919Zm90.486,29.762,9.459,2.517,1.217-3.81Zm37.272-84.5-37.969,84.2,11.5-1.392ZM270.24,524.7l88.733,29.647-34-54.046Zm55.086-24.556,34.067,54.151,39.135-86.784Zm73.628-32.521-27.294,85.4,68.538-8.294Zm-300.579,63.7L154.4,552.151l-40.869-94.158Zm301-63.729,41.234,77.085,28.7-3.476,7.512-32.139Zm77.8,41.658-7.458,31.9,54.683-6.617Zm.092-.388,47.549,25.461-3.333-69.53-34.079.7Zm44.6-44.077,3.3,68.92,25.739-69.517Zm29.457-.607-25.676,69.346L579.22,463.6ZM55.994,455.639,97.83,530.47,87.971,456.7Zm32.368,1.077,9.834,73.58,15.034-72.751Zm-46.8-1.559,54.992,73.814L55.544,455.624Zm159.12,39.6,68.891,29.7,17.613-83.973-95.342,9.371Zm86.836-53.986-17.54,83.627,54.787-24.424ZM399.648,467.3l77.267,41.374L487.007,465.5ZM287.839,440.561l37.278,59.251,73.2-32.633ZM114.221,457.481l86.031,37.088-8.795-44.68Zm401.263-113.8L399.363,466.926l87.734-1.809ZM287.7,440.131l110.923,26.728L347.956,313.577Zm60.571-126.823L398.9,466.487l41.047-136.808Zm92.057,16.437-41,136.657L515.45,343.16Zm75.38,14.671L487.493,465.11l33.969-.7Zm.359-.534L521.849,464.4l29.205-.6L562.8,432.08Zm46.975,88.652-11.575,31.258,27.832-.574Zm.179-.484,16.243,30.661,5.561-89.551Zm22.248-59.866-5.525,88.994,19.345-81.532Zm14.17,7.652L580.41,460.883l29.919-75.272ZM88.309,456.33l24.564.82-27.26-20.992Zm81.929-114.245L113.787,457.137l77.6-7.627Zm-84.7,93.532,27.715,21.344L109.928,356.8l-33.789,8.455ZM110.31,356.7l3.318,99.886,56.334-114.812ZM55.775,455.245l32.147,1.073-2.74-20.495L14.468,381.368ZM170.611,341.987l21.155,107.486,95.187-9.355Zm.15-.374,116.6,98.344,60.3-126.648ZM14.276,380.734,85.11,435.284l-9.346-69.937Zm501.977-37.318,46.724,88.18,22.077-59.616ZM57.875,231.482,14.122,380.375l61.59-15.41Zm527.67,140.307,13.835,7.472,18.843-79.425Zm-69.221-28.76,68.781,28.556.323-58.792Zm69.49-30.4-.321,58.349,32.992-72.645ZM58.21,231.091l17.878,133.78,33.829-8.464-2.552-76.793Zm49.55,48.915L110.3,356.31l59.643-14.924Zm332.68,49.372,75,13.392-53.36-85.526ZM566.107,223.755,516.2,342.667l69.235-30.294.434-79.6Zm-82.513-37.668,32.3,156.3L565.757,223.6Zm-21.365,70.663,53.2,85.271L483.294,186.539Zm-168.46-26.217L170.928,341.2l176.738-28.278ZM107.742,279.446l62.414,61.615,9.121-121.446L105.6,215.076Zm71.921-59.837-9.119,121.416L293.556,230.207,279.2,208.265ZM348.4,312.939l91.661,16.368,21.751-72.5-19.875-31.855Zm48.164-160.712-48.183,160.2,93.351-87.809ZM324.306,203.04l23.711,109.255,48.137-160.049Zm261.945,29.912-.436,79.253,32.842-14.369-7.222-53.385Zm-292.193-2.679,53.523,81.814L323.976,203.32ZM24.148,210.056,7.862,284.138l49.911-53.675,5-18.025Zm34.036,20.47,49.16,48.529-2.128-64-36.978-2.279Zm384.039-5.839,19.734,31.63,20.981-69.932ZM566.256,223.4l19.613,8.954.182-33.3-6.571-7.166ZM279.63,208.217l14.216,21.731,29.674-26.734ZM63.166,212.46l-4.616,16.645,9.263-16.359Zm333.8-60.3,45.045,72.2,40.961-38.528Zm87.08,33.718L565.9,223.243l13.29-31.661-13.108-14.3ZM105.59,214.69l73.359,4.522-75.477-68.236Zm128.993-74.631-54.7,79.137,99.085-11.291ZM103.721,150.686l75.545,68.294L175.1,144.808Zm71.758-5.911,4.165,74.091L234.2,139.94Zm410.957,54.136,15.836,17.271-15.71-40.21ZM68.448,212.4l36.756,2.266L103.1,151.218Zm-5.177-.319,4.751.292,34.624-61.141L74.259,172.477ZM24.53,209.7l38.349,2.362,10.876-39.2ZM95.418,94.78,24.693,209.094l49.231-36.846Zm139.871,45.666,44.1,67.412,44.179-5.035Zm67.7,4.555,21.2,57.654,71.766-50.735Zm-67.725-5.041L323.7,202.444l-21.132-57.477ZM579.644,191.5l6.412,6.992.125-22.561Zm-13.083-14.267,12.8,13.956,6.717-16ZM521.639,128.81l-37.925,56.713,82.049-8.591Zm-124.8,22.884,86.25,33.764L468.563,79.767Zm72.115-71.881,14.49,105.416,37.923-56.711-22-23.992Zm52.9,48.669,44.381,48.4,19.658-2.059L524.324,124.8Zm2.679-4.006,60.914,49.491-47.83-69.06ZM95.893,94.5,74.428,171.872l28.633-21.428Zm206.949,50.1,93.334,6.947L341.75,43.415,284.578,94.929ZM342.136,43.325l54.3,107.891L421.325,50.383Zm79.575,7.093L396.854,151.141l71.593-71.8L447.98,52.759ZM171.489,80.629,103.76,150.3l71.314-5.872ZM96.177,93.691l7.209,56.273,39.267-64.471ZM143.158,85.4l-38.841,63.77,66.786-68.7Zm91.892,54.155,67.372,5.014-18.15-49.366Zm-63.174-58.9,3.583,63.739,58.691-4.833Zm.069-.463,62.508,59.132,14.279-95.982L194.6,61.194Zm77.194-36.986-14.283,96.009,49.272-44.4L263.417,38.5Zm252.279,62.98,20.176,22,2.429-3.637Zm-1.78-1.941,24.6,19.988,13.085-19.569L481.2,84.132Zm-19-20.727,56.031,20.495L479.238,55.658l-7.781,17.854Zm-10.92-3.585,27.882,22.653-17.182-18.74ZM263.784,38.376l20.65,56.165,57.007-51.367L297.308,27.315Zm-94.958,4.148L97.133,92.946l51.286-16.919ZM148.11,76.533,98.55,92.881l44.369-7.825Zm.563-.186-5.25,8.62,28.032-4.945-.626-10.984Zm320.286,2.9,10.888,3.985L471.29,73.9ZM171.207,68.916l.618,10.874,21.793-18.269ZM448.5,52.8l20.153,26.179,2.352-5.4L452.257,53.141ZM169.311,42.462,148.982,75.84l21.824-7.2ZM452.823,53.191,471.175,73.2l7.708-17.687ZM169.669,41.969l1.513,26.547,23.231-7.662L252.719,11.98ZM253.407,11.9,195.4,60.528l53.395-17.613ZM452.439,52.77,478.3,55.077,428.532,26.7Zm-4.257-.378,3.691.328L430.437,29.341ZM421.805,50.04l25.856,2.306L427.651,26.353Zm-78.654-7.009,78.268,6.974L427.3,26.169ZM297.9,27.12l43.784,15.735,10.669-33.7ZM352.78,9.085,342.09,42.85l84.552-16.94ZM253.751,12.2,249.2,42.781l14.085-4.647Zm.244-.453,9.657,26.265,33.071-10.909Zm.7-.154L297.313,26.91,351.351,9.085Z" transform="translate(6.747 7.975)" fill="#2477c1"/>
    <path id="Path_306" data-name="Path 306" d="M128.924,77.963a2.194,2.194,0,1,0-2.195,2.193,2.193,2.193,0,0,0,2.195-2.193" transform="translate(114.604 69.727)" fill="#2477c1"/>
    <path id="Path_307" data-name="Path 307" d="M312.122,96.321a2.193,2.193,0,1,0-2.193,2.193,2.192,2.192,0,0,0,2.193-2.193" transform="translate(283.194 86.621)" fill="#2477c1"/>
    <path id="Path_308" data-name="Path 308" d="M320.689,118.247a2.193,2.193,0,1,0-2.193,2.193,2.192,2.192,0,0,0,2.193-2.193" transform="translate(291.078 106.799)" fill="#2477c1"/>
    <path id="Path_309" data-name="Path 309" d="M229.416,18.7a2.193,2.193,0,1,0-2.193,2.193,2.192,2.192,0,0,0,2.193-2.193" transform="translate(207.084 15.193)" fill="#2477c1"/>
    <path id="Path_310" data-name="Path 310" d="M190.4,9.817a2.193,2.193,0,1,0-2.193,2.193A2.192,2.192,0,0,0,190.4,9.817" transform="translate(171.184 7.016)" fill="#2477c1"/>
    <path id="Path_311" data-name="Path 311" d="M56.732,53.913a2.193,2.193,0,1,0-2.193,2.193,2.192,2.192,0,0,0,2.193-2.193" transform="translate(48.171 47.595)" fill="#2477c1"/>
    <path id="Path_312" data-name="Path 312" d="M36.934,125.272a2.193,2.193,0,1,0-2.193,2.193,2.192,2.192,0,0,0,2.193-2.193" transform="translate(29.952 113.264)" fill="#2477c1"/>
    <path id="Path_313" data-name="Path 313" d="M60.534,83.595a2.193,2.193,0,1,0-2.193,2.193,2.192,2.192,0,0,0,2.193-2.193" transform="translate(51.67 74.91)" fill="#2477c1"/>
    <path id="Path_314" data-name="Path 314" d="M65.845,243.382a2.193,2.193,0,1,0-2.193,2.193,2.192,2.192,0,0,0,2.193-2.193" transform="translate(56.558 221.955)" fill="#2477c1"/>
    <path id="Path_315" data-name="Path 315" d="M147.213,278.461a2.193,2.193,0,1,0-2.193,2.193,2.192,2.192,0,0,0,2.193-2.193" transform="translate(131.437 254.236)" fill="#2477c1"/>
    <path id="Path_316" data-name="Path 316" d="M156.439,234.478a2.193,2.193,0,1,0-2.193,2.193,2.192,2.192,0,0,0,2.193-2.193" transform="translate(139.927 213.761)" fill="#2477c1"/>
    <path id="Path_317" data-name="Path 317" d="M65.845,243.382a2.193,2.193,0,1,0-2.193,2.193,2.192,2.192,0,0,0,2.193-2.193" transform="translate(56.558 221.955)" fill="#2477c1"/>
    <path id="Path_318" data-name="Path 318" d="M95.453,183.04a2.193,2.193,0,1,0-2.193,2.193,2.192,2.192,0,0,0,2.193-2.193" transform="translate(83.805 166.425)" fill="#2477c1"/>
    <path id="Path_319" data-name="Path 319" d="M119.429,304.851a2.193,2.193,0,1,0-2.193,2.193,2.192,2.192,0,0,0,2.193-2.193" transform="translate(105.868 278.521)" fill="#2477c1"/>
    <path id="Path_320" data-name="Path 320" d="M193.932,294.07a2.193,2.193,0,1,0-2.193,2.193,2.192,2.192,0,0,0,2.193-2.193" transform="translate(174.43 268.6)" fill="#2477c1"/>
    <path id="Path_321" data-name="Path 321" d="M154.562,326.872a2.193,2.193,0,1,0-2.193,2.193,2.192,2.192,0,0,0,2.193-2.193" transform="translate(138.2 298.786)" fill="#2477c1"/>
    <path id="Path_322" data-name="Path 322" d="M147.213,278.461a2.193,2.193,0,1,0-2.193,2.193,2.192,2.192,0,0,0,2.193-2.193" transform="translate(131.437 254.236)" fill="#2477c1"/>
    <path id="Path_323" data-name="Path 323" d="M121.991,320.469a2.193,2.193,0,1,0-2.193,2.193,2.192,2.192,0,0,0,2.193-2.193" transform="translate(108.226 292.894)" fill="#2477c1"/>
    <path id="Path_324" data-name="Path 324" d="M154.562,326.872a2.193,2.193,0,1,0-2.193,2.193,2.192,2.192,0,0,0,2.193-2.193" transform="translate(138.2 298.786)" fill="#2477c1"/>
    <path id="Path_325" data-name="Path 325" d="M94.222,308.76a2.193,2.193,0,1,0-2.193,2.193,2.192,2.192,0,0,0,2.193-2.193" transform="translate(82.672 282.119)" fill="#2477c1"/>
    <path id="Path_326" data-name="Path 326" d="M119.429,304.851a2.193,2.193,0,1,0-2.193,2.193,2.192,2.192,0,0,0,2.193-2.193" transform="translate(105.868 278.521)" fill="#2477c1"/>
    <path id="Path_327" data-name="Path 327" d="M57.874,281.961a2.194,2.194,0,1,0-2.195,2.193,2.194,2.194,0,0,0,2.195-2.193" transform="translate(49.221 257.457)" fill="#2477c1"/>
    <path id="Path_328" data-name="Path 328" d="M94.222,308.76a2.193,2.193,0,1,0-2.193,2.193,2.192,2.192,0,0,0,2.193-2.193" transform="translate(82.672 282.119)" fill="#2477c1"/>
    <path id="Path_329" data-name="Path 329" d="M65.845,243.382a2.193,2.193,0,1,0-2.193,2.193,2.192,2.192,0,0,0,2.193-2.193" transform="translate(56.558 221.955)" fill="#2477c1"/>
    <path id="Path_330" data-name="Path 330" d="M57.874,281.961a2.194,2.194,0,1,0-2.195,2.193,2.194,2.194,0,0,0,2.195-2.193" transform="translate(49.221 257.457)" fill="#2477c1"/>
    <path id="Path_331" data-name="Path 331" d="M28.2,242.127A2.193,2.193,0,1,0,26,244.32a2.192,2.192,0,0,0,2.193-2.193" transform="translate(21.912 220.8)" fill="#2477c1"/>
    <path id="Path_332" data-name="Path 332" d="M65.845,243.382a2.193,2.193,0,1,0-2.193,2.193,2.192,2.192,0,0,0,2.193-2.193" transform="translate(56.558 221.955)" fill="#2477c1"/>
    <path id="Path_333" data-name="Path 333" d="M13.967,203.43a2.193,2.193,0,1,0-2.193,2.193,2.192,2.192,0,0,0,2.193-2.193" transform="translate(8.817 185.189)" fill="#2477c1"/>
    <path id="Path_334" data-name="Path 334" d="M57.874,281.961a2.194,2.194,0,1,0-2.195,2.193,2.194,2.194,0,0,0,2.195-2.193" transform="translate(49.221 257.457)" fill="#2477c1"/>
    <path id="Path_335" data-name="Path 335" d="M36.934,125.272a2.193,2.193,0,1,0-2.193,2.193,2.192,2.192,0,0,0,2.193-2.193" transform="translate(29.952 113.264)" fill="#2477c1"/>
    <path id="Path_336" data-name="Path 336" d="M95.453,183.04a2.193,2.193,0,1,0-2.193,2.193,2.192,2.192,0,0,0,2.193-2.193" transform="translate(83.805 166.425)" fill="#2477c1"/>
    <path id="Path_337" data-name="Path 337" d="M13.967,203.43a2.193,2.193,0,1,0-2.193,2.193,2.192,2.192,0,0,0,2.193-2.193" transform="translate(8.817 185.189)" fill="#2477c1"/>
    <path id="Path_338" data-name="Path 338" d="M36.934,125.272a2.193,2.193,0,1,0-2.193,2.193,2.192,2.192,0,0,0,2.193-2.193" transform="translate(29.952 113.264)" fill="#2477c1"/>
    <path id="Path_339" data-name="Path 339" d="M10.676,153.509A2.193,2.193,0,1,0,8.483,155.7a2.192,2.192,0,0,0,2.193-2.193" transform="translate(5.788 139.249)" fill="#2477c1"/>
    <path id="Path_340" data-name="Path 340" d="M19.254,114.489a2.193,2.193,0,1,0-2.193,2.193,2.192,2.192,0,0,0,2.193-2.193" transform="translate(13.682 103.341)" fill="#2477c1"/>
    <path id="Path_341" data-name="Path 341" d="M100.226,119.479a2.193,2.193,0,1,0-2.193,2.193,2.192,2.192,0,0,0,2.193-2.193" transform="translate(88.197 107.933)" fill="#2477c1"/>
    <path id="Path_342" data-name="Path 342" d="M95.453,183.04a2.193,2.193,0,1,0-2.193,2.193,2.192,2.192,0,0,0,2.193-2.193" transform="translate(83.805 166.425)" fill="#2477c1"/>
    <path id="Path_343" data-name="Path 343" d="M156.439,234.478a2.193,2.193,0,1,0-2.193,2.193,2.192,2.192,0,0,0,2.193-2.193" transform="translate(139.927 213.761)" fill="#2477c1"/>
    <path id="Path_344" data-name="Path 344" d="M193.932,294.07a2.193,2.193,0,1,0-2.193,2.193,2.192,2.192,0,0,0,2.193-2.193" transform="translate(174.43 268.6)" fill="#2477c1"/>
    <path id="Path_345" data-name="Path 345" d="M147.213,278.461a2.193,2.193,0,1,0-2.193,2.193,2.192,2.192,0,0,0,2.193-2.193" transform="translate(131.437 254.236)" fill="#2477c1"/>
    <path id="Path_346" data-name="Path 346" d="M214.5,248.467a2.193,2.193,0,1,0-2.193,2.193,2.192,2.192,0,0,0,2.193-2.193" transform="translate(193.354 226.634)" fill="#2477c1"/>
    <path id="Path_347" data-name="Path 347" d="M156.439,234.478a2.193,2.193,0,1,0-2.193,2.193,2.192,2.192,0,0,0,2.193-2.193" transform="translate(139.927 213.761)" fill="#2477c1"/>
    <path id="Path_348" data-name="Path 348" d="M187.978,168.235a2.193,2.193,0,1,0-2.193,2.193,2.192,2.192,0,0,0,2.193-2.193" transform="translate(168.951 152.8)" fill="#2477c1"/>
    <path id="Path_349" data-name="Path 349" d="M95.453,183.04a2.193,2.193,0,1,0-2.193,2.193,2.192,2.192,0,0,0,2.193-2.193" transform="translate(83.805 166.425)" fill="#2477c1"/>
    <path id="Path_350" data-name="Path 350" d="M175.534,110.9a2.193,2.193,0,1,0-2.193,2.193,2.192,2.192,0,0,0,2.193-2.193" transform="translate(157.499 100.035)" fill="#2477c1"/>
    <path id="Path_351" data-name="Path 351" d="M100.226,119.479a2.193,2.193,0,1,0-2.193,2.193,2.192,2.192,0,0,0,2.193-2.193" transform="translate(88.197 107.933)" fill="#2477c1"/>
    <path id="Path_352" data-name="Path 352" d="M60.534,83.595a2.193,2.193,0,1,0-2.193,2.193,2.192,2.192,0,0,0,2.193-2.193" transform="translate(51.67 74.91)" fill="#2477c1"/>
    <path id="Path_353" data-name="Path 353" d="M19.254,114.489a2.193,2.193,0,1,0-2.193,2.193,2.192,2.192,0,0,0,2.193-2.193" transform="translate(13.682 103.341)" fill="#2477c1"/>
    <path id="Path_354" data-name="Path 354" d="M56.732,53.913a2.193,2.193,0,1,0-2.193,2.193,2.192,2.192,0,0,0,2.193-2.193" transform="translate(48.171 47.595)" fill="#2477c1"/>
    <path id="Path_355" data-name="Path 355" d="M60.534,83.595a2.193,2.193,0,1,0-2.193,2.193,2.192,2.192,0,0,0,2.193-2.193" transform="translate(51.67 74.91)" fill="#2477c1"/>
    <path id="Path_356" data-name="Path 356" d="M128.924,77.963a2.194,2.194,0,1,0-2.195,2.193,2.193,2.193,0,0,0,2.195-2.193" transform="translate(114.604 69.727)" fill="#2477c1"/>
    <path id="Path_357" data-name="Path 357" d="M100.226,119.479a2.193,2.193,0,1,0-2.193,2.193,2.192,2.192,0,0,0,2.193-2.193" transform="translate(88.197 107.933)" fill="#2477c1"/>
    <path id="Path_358" data-name="Path 358" d="M96.15,46.96a2.193,2.193,0,1,0-2.193,2.193A2.192,2.192,0,0,0,96.15,46.96" transform="translate(84.446 41.197)" fill="#2477c1"/>
    <path id="Path_359" data-name="Path 359" d="M60.534,83.595a2.193,2.193,0,1,0-2.193,2.193,2.192,2.192,0,0,0,2.193-2.193" transform="translate(51.67 74.91)" fill="#2477c1"/>
    <path id="Path_360" data-name="Path 360" d="M95.011,26.991a2.193,2.193,0,1,0-2.193,2.193,2.192,2.192,0,0,0,2.193-2.193" transform="translate(83.398 22.82)" fill="#2477c1"/>
    <path id="Path_361" data-name="Path 361" d="M56.732,53.913a2.193,2.193,0,1,0-2.193,2.193,2.192,2.192,0,0,0,2.193-2.193" transform="translate(48.171 47.595)" fill="#2477c1"/>
    <path id="Path_362" data-name="Path 362" d="M96.15,46.96a2.193,2.193,0,1,0-2.193,2.193A2.192,2.192,0,0,0,96.15,46.96" transform="translate(84.446 41.197)" fill="#2477c1"/>
    <path id="Path_363" data-name="Path 363" d="M95.011,26.991a2.193,2.193,0,1,0-2.193,2.193,2.192,2.192,0,0,0,2.193-2.193" transform="translate(83.398 22.82)" fill="#2477c1"/>
    <path id="Path_364" data-name="Path 364" d="M138.861,11.157a2.193,2.193,0,1,0-2.193,2.193,2.192,2.192,0,0,0,2.193-2.193" transform="translate(123.751 8.249)" fill="#2477c1"/>
    <path id="Path_365" data-name="Path 365" d="M96.15,46.96a2.193,2.193,0,1,0-2.193,2.193A2.192,2.192,0,0,0,96.15,46.96" transform="translate(84.446 41.197)" fill="#2477c1"/>
    <path id="Path_366" data-name="Path 366" d="M128.924,77.963a2.194,2.194,0,1,0-2.195,2.193,2.193,2.193,0,0,0,2.195-2.193" transform="translate(114.604 69.727)" fill="#2477c1"/>
    <path id="Path_367" data-name="Path 367" d="M187.978,168.235a2.193,2.193,0,1,0-2.193,2.193,2.192,2.192,0,0,0,2.193-2.193" transform="translate(168.951 152.8)" fill="#2477c1"/>
    <path id="Path_368" data-name="Path 368" d="M214.5,248.467a2.193,2.193,0,1,0-2.193,2.193,2.192,2.192,0,0,0,2.193-2.193" transform="translate(193.354 226.634)" fill="#2477c1"/>
    <path id="Path_369" data-name="Path 369" d="M189.568,326.465a2.193,2.193,0,1,0-2.193,2.193,2.192,2.192,0,0,0,2.193-2.193" transform="translate(170.414 298.412)" fill="#2477c1"/>
    <path id="Path_370" data-name="Path 370" d="M154.562,326.872a2.193,2.193,0,1,0-2.193,2.193,2.192,2.192,0,0,0,2.193-2.193" transform="translate(138.2 298.786)" fill="#2477c1"/>
    <path id="Path_371" data-name="Path 371" d="M246.354,308.031a2.193,2.193,0,1,0-2.193,2.193,2.192,2.192,0,0,0,2.193-2.193" transform="translate(222.671 281.448)" fill="#2477c1"/>
    <path id="Path_372" data-name="Path 372" d="M214.5,248.467a2.193,2.193,0,1,0-2.193,2.193,2.192,2.192,0,0,0,2.193-2.193" transform="translate(193.354 226.634)" fill="#2477c1"/>
    <path id="Path_373" data-name="Path 373" d="M193.932,294.07a2.193,2.193,0,1,0-2.193,2.193,2.192,2.192,0,0,0,2.193-2.193" transform="translate(174.43 268.6)" fill="#2477c1"/>
    <path id="Path_374" data-name="Path 374" d="M209.34,322.721a2.193,2.193,0,1,0-2.193,2.193,2.192,2.192,0,0,0,2.193-2.193" transform="translate(188.609 294.966)" fill="#2477c1"/>
    <path id="Path_375" data-name="Path 375" d="M246.354,308.031a2.193,2.193,0,1,0-2.193,2.193,2.192,2.192,0,0,0,2.193-2.193" transform="translate(222.671 281.448)" fill="#2477c1"/>
    <path id="Path_376" data-name="Path 376" d="M193.932,294.07a2.193,2.193,0,1,0-2.193,2.193,2.192,2.192,0,0,0,2.193-2.193" transform="translate(174.43 268.6)" fill="#2477c1"/>
    <path id="Path_377" data-name="Path 377" d="M280.172,283.634a2.193,2.193,0,1,0-2.193,2.193,2.192,2.192,0,0,0,2.193-2.193" transform="translate(253.793 258.996)" fill="#2477c1"/>
    <path id="Path_378" data-name="Path 378" d="M275.386,183.844a2.193,2.193,0,1,0-2.193,2.193,2.192,2.192,0,0,0,2.193-2.193" transform="translate(249.388 167.165)" fill="#2477c1"/>
    <path id="Path_379" data-name="Path 379" d="M246.354,308.031a2.193,2.193,0,1,0-2.193,2.193,2.192,2.192,0,0,0,2.193-2.193" transform="translate(222.671 281.448)" fill="#2477c1"/>
    <path id="Path_380" data-name="Path 380" d="M280.172,283.634a2.193,2.193,0,1,0-2.193,2.193,2.192,2.192,0,0,0,2.193-2.193" transform="translate(253.793 258.996)" fill="#2477c1"/>
    <path id="Path_381" data-name="Path 381" d="M214.5,248.467a2.193,2.193,0,1,0-2.193,2.193,2.192,2.192,0,0,0,2.193-2.193" transform="translate(193.354 226.634)" fill="#2477c1"/>
    <path id="Path_382" data-name="Path 382" d="M308.6,246.529a2.193,2.193,0,1,0-2.193,2.193,2.192,2.192,0,0,0,2.193-2.193" transform="translate(279.953 224.851)" fill="#2477c1"/>
    <path id="Path_383" data-name="Path 383" d="M280.172,283.634a2.193,2.193,0,1,0-2.193,2.193,2.192,2.192,0,0,0,2.193-2.193" transform="translate(253.793 258.996)" fill="#2477c1"/>
    <path id="Path_384" data-name="Path 384" d="M311.559,198.862a2.193,2.193,0,1,0-2.193,2.193,2.192,2.192,0,0,0,2.193-2.193" transform="translate(282.676 180.985)" fill="#2477c1"/>
    <path id="Path_385" data-name="Path 385" d="M324.721,205.971a2.193,2.193,0,1,0-2.193,2.193,2.192,2.192,0,0,0,2.193-2.193" transform="translate(294.789 187.527)" fill="#2477c1"/>
    <path id="Path_386" data-name="Path 386" d="M308.6,246.529a2.193,2.193,0,1,0-2.193,2.193,2.192,2.192,0,0,0,2.193-2.193" transform="translate(279.953 224.851)" fill="#2477c1"/>
    <path id="Path_387" data-name="Path 387" d="M329.042,160.368a2.193,2.193,0,1,0-2.193,2.193,2.192,2.192,0,0,0,2.193-2.193" transform="translate(298.765 145.561)" fill="#2477c1"/>
    <path id="Path_388" data-name="Path 388" d="M311.559,198.862a2.193,2.193,0,1,0-2.193,2.193,2.192,2.192,0,0,0,2.193-2.193" transform="translate(282.676 180.985)" fill="#2477c1"/>
    <path id="Path_389" data-name="Path 389" d="M308.6,246.529a2.193,2.193,0,1,0-2.193,2.193,2.192,2.192,0,0,0,2.193-2.193" transform="translate(279.953 224.851)" fill="#2477c1"/>
    <path id="Path_390" data-name="Path 390" d="M275.386,183.844a2.193,2.193,0,1,0-2.193,2.193,2.192,2.192,0,0,0,2.193-2.193" transform="translate(249.388 167.165)" fill="#2477c1"/>
    <path id="Path_391" data-name="Path 391" d="M214.5,248.467a2.193,2.193,0,1,0-2.193,2.193,2.192,2.192,0,0,0,2.193-2.193" transform="translate(193.354 226.634)" fill="#2477c1"/>
    <path id="Path_392" data-name="Path 392" d="M258.458,101.939a2.193,2.193,0,1,0-2.193,2.193,2.192,2.192,0,0,0,2.193-2.193" transform="translate(233.81 91.791)" fill="#2477c1"/>
    <path id="Path_393" data-name="Path 393" d="M187.978,168.235a2.193,2.193,0,1,0-2.193,2.193,2.192,2.192,0,0,0,2.193-2.193" transform="translate(168.951 152.8)" fill="#2477c1"/>
    <path id="Path_394" data-name="Path 394" d="M275.386,183.844a2.193,2.193,0,1,0-2.193,2.193,2.192,2.192,0,0,0,2.193-2.193" transform="translate(249.388 167.165)" fill="#2477c1"/>
    <path id="Path_395" data-name="Path 395" d="M213.241,84.239a2.193,2.193,0,1,0-2.193,2.193,2.192,2.192,0,0,0,2.193-2.193" transform="translate(192.199 75.503)" fill="#2477c1"/>
    <path id="Path_396" data-name="Path 396" d="M175.534,110.9a2.193,2.193,0,1,0-2.193,2.193,2.192,2.192,0,0,0,2.193-2.193" transform="translate(157.499 100.035)" fill="#2477c1"/>
    <path id="Path_397" data-name="Path 397" d="M187.978,168.235a2.193,2.193,0,1,0-2.193,2.193,2.192,2.192,0,0,0,2.193-2.193" transform="translate(168.951 152.8)" fill="#2477c1"/>
    <path id="Path_398" data-name="Path 398" d="M213.241,84.239a2.193,2.193,0,1,0-2.193,2.193,2.192,2.192,0,0,0,2.193-2.193" transform="translate(192.199 75.503)" fill="#2477c1"/>
    <path id="Path_399" data-name="Path 399" d="M128.924,77.963a2.194,2.194,0,1,0-2.195,2.193,2.193,2.193,0,0,0,2.195-2.193" transform="translate(114.604 69.727)" fill="#2477c1"/>
    <path id="Path_400" data-name="Path 400" d="M175.534,110.9a2.193,2.193,0,1,0-2.193,2.193,2.192,2.192,0,0,0,2.193-2.193" transform="translate(157.499 100.035)" fill="#2477c1"/>
    <path id="Path_401" data-name="Path 401" d="M138.861,11.157a2.193,2.193,0,1,0-2.193,2.193,2.192,2.192,0,0,0,2.193-2.193" transform="translate(123.751 8.249)" fill="#2477c1"/>
    <path id="Path_402" data-name="Path 402" d="M128.924,77.963a2.194,2.194,0,1,0-2.195,2.193,2.193,2.193,0,0,0,2.195-2.193" transform="translate(114.604 69.727)" fill="#2477c1"/>
    <path id="Path_403" data-name="Path 403" d="M184.759,27.651a2.193,2.193,0,1,0-2.193,2.193,2.192,2.192,0,0,0,2.193-2.193" transform="translate(165.989 23.428)" fill="#2477c1"/>
    <path id="Path_404" data-name="Path 404" d="M190.4,9.817a2.193,2.193,0,1,0-2.193,2.193A2.192,2.192,0,0,0,190.4,9.817" transform="translate(171.184 7.016)" fill="#2477c1"/>
    <path id="Path_405" data-name="Path 405" d="M138.861,11.157a2.193,2.193,0,1,0-2.193,2.193,2.192,2.192,0,0,0,2.193-2.193" transform="translate(123.751 8.249)" fill="#2477c1"/>
    <path id="Path_406" data-name="Path 406" d="M184.759,27.651a2.193,2.193,0,1,0-2.193,2.193,2.192,2.192,0,0,0,2.193-2.193" transform="translate(165.989 23.428)" fill="#2477c1"/>
    <path id="Path_407" data-name="Path 407" d="M213.241,84.239a2.193,2.193,0,1,0-2.193,2.193,2.192,2.192,0,0,0,2.193-2.193" transform="translate(192.199 75.503)" fill="#2477c1"/>
    <path id="Path_408" data-name="Path 408" d="M229.416,18.7a2.193,2.193,0,1,0-2.193,2.193,2.192,2.192,0,0,0,2.193-2.193" transform="translate(207.084 15.193)" fill="#2477c1"/>
    <path id="Path_409" data-name="Path 409" d="M184.759,27.651a2.193,2.193,0,1,0-2.193,2.193,2.192,2.192,0,0,0,2.193-2.193" transform="translate(165.989 23.428)" fill="#2477c1"/>
    <path id="Path_410" data-name="Path 410" d="M256.29,34.026a2.193,2.193,0,1,0-2.193,2.193,2.192,2.192,0,0,0,2.193-2.193" transform="translate(231.815 29.294)" fill="#2477c1"/>
    <path id="Path_411" data-name="Path 411" d="M229.416,18.7a2.193,2.193,0,1,0-2.193,2.193,2.192,2.192,0,0,0,2.193-2.193" transform="translate(207.084 15.193)" fill="#2477c1"/>
    <path id="Path_412" data-name="Path 412" d="M250.841,46.531a2.193,2.193,0,1,0-2.193,2.193,2.192,2.192,0,0,0,2.193-2.193" transform="translate(226.801 40.802)" fill="#2477c1"/>
    <path id="Path_413" data-name="Path 413" d="M256.29,34.026a2.193,2.193,0,1,0-2.193,2.193,2.192,2.192,0,0,0,2.193-2.193" transform="translate(231.815 29.294)" fill="#2477c1"/>
    <path id="Path_414" data-name="Path 414" d="M286.731,59.658a2.193,2.193,0,1,0-2.193,2.193,2.192,2.192,0,0,0,2.193-2.193" transform="translate(259.828 52.882)" fill="#2477c1"/>
    <path id="Path_415" data-name="Path 415" d="M250.841,46.531a2.193,2.193,0,1,0-2.193,2.193,2.192,2.192,0,0,0,2.193-2.193" transform="translate(226.801 40.802)" fill="#2477c1"/>
    <path id="Path_416" data-name="Path 416" d="M213.241,84.239a2.193,2.193,0,1,0-2.193,2.193,2.192,2.192,0,0,0,2.193-2.193" transform="translate(192.199 75.503)" fill="#2477c1"/>
    <path id="Path_417" data-name="Path 417" d="M258.458,101.939a2.193,2.193,0,1,0-2.193,2.193,2.192,2.192,0,0,0,2.193-2.193" transform="translate(233.81 91.791)" fill="#2477c1"/>
    <path id="Path_418" data-name="Path 418" d="M275.386,183.844a2.193,2.193,0,1,0-2.193,2.193,2.192,2.192,0,0,0,2.193-2.193" transform="translate(249.388 167.165)" fill="#2477c1"/>
    <path id="Path_419" data-name="Path 419" d="M311.559,198.862a2.193,2.193,0,1,0-2.193,2.193,2.192,2.192,0,0,0,2.193-2.193" transform="translate(282.676 180.985)" fill="#2477c1"/>
    <path id="Path_420" data-name="Path 420" d="M312.122,96.321a2.193,2.193,0,1,0-2.193,2.193,2.192,2.192,0,0,0,2.193-2.193" transform="translate(283.194 86.621)" fill="#2477c1"/>
    <path id="Path_421" data-name="Path 421" d="M250.841,46.531a2.193,2.193,0,1,0-2.193,2.193,2.192,2.192,0,0,0,2.193-2.193" transform="translate(226.801 40.802)" fill="#2477c1"/>
    <path id="Path_422" data-name="Path 422" d="M286.731,59.658a2.193,2.193,0,1,0-2.193,2.193,2.192,2.192,0,0,0,2.193-2.193" transform="translate(259.828 52.882)" fill="#2477c1"/>
    <path id="Path_423" data-name="Path 423" d="M258.458,101.939a2.193,2.193,0,1,0-2.193,2.193,2.192,2.192,0,0,0,2.193-2.193" transform="translate(233.81 91.791)" fill="#2477c1"/>
    <path id="Path_424" data-name="Path 424" d="M312.122,96.321a2.193,2.193,0,1,0-2.193,2.193,2.192,2.192,0,0,0,2.193-2.193" transform="translate(283.194 86.621)" fill="#2477c1"/>
    <path id="Path_425" data-name="Path 425" d="M258.458,101.939a2.193,2.193,0,1,0-2.193,2.193,2.192,2.192,0,0,0,2.193-2.193" transform="translate(233.81 91.791)" fill="#2477c1"/>
    <path id="Path_426" data-name="Path 426" d="M325.263,132.437a2.193,2.193,0,1,0-2.193,2.193,2.192,2.192,0,0,0,2.193-2.193" transform="translate(295.288 119.857)" fill="#2477c1"/>
    <path id="Path_427" data-name="Path 427" d="M329.042,160.368a2.193,2.193,0,1,0-2.193,2.193,2.192,2.192,0,0,0,2.193-2.193" transform="translate(298.765 145.561)" fill="#2477c1"/>
    <path id="Path_428" data-name="Path 428" d="M275.386,183.844a2.193,2.193,0,1,0-2.193,2.193,2.192,2.192,0,0,0,2.193-2.193" transform="translate(249.388 167.165)" fill="#2477c1"/>
    <path id="Path_429" data-name="Path 429" d="M312.122,96.321a2.193,2.193,0,1,0-2.193,2.193,2.192,2.192,0,0,0,2.193-2.193" transform="translate(283.194 86.621)" fill="#2477c1"/>
    <path id="Path_430" data-name="Path 430" d="M288.393,636.193a.4.4,0,0,1-.083-.01l-77.6-17.061a.285.285,0,0,1-.069-.019.485.485,0,0,1-.063-.033L90.108,544.536a.5.5,0,0,1-.063-.048l-.006-.008,0,0h0v0l0,0,0,0-.04-.048L36.45,468.3a.358.358,0,0,1-.042-.075l-.01-.025L4.908,380.992v0h0v0l0-.012,0,0,0,0v0l0,0v0a.412.412,0,0,1-.013-.094L2.22,278.36a.478.478,0,0,1,0-.073v0l.008-.031L19.9,200.674a.392.392,0,0,1,.042-.111l30.476-53.45.013-.019,0,0v0h0v0l.025-.035,50.981-60.54a.343.343,0,0,1,.079-.071l72.908-50.495a.268.268,0,0,1,.046-.029l0,0,.04-.017,43.6-17.036a.384.384,0,0,1,.4.641L200.511,36.015l33.645.184L246.134,9.961a.39.39,0,0,1,.3-.221l55.547-7.514a.106.106,0,0,1,.065,0,.426.426,0,0,1,.086.012l84.22,19.98,6.049-11.2a.387.387,0,0,1,.48-.175L473.546,42.9l.019.01,0,0a.34.34,0,0,1,.077.046l73.784,56.532a.36.36,0,0,1,.056.052l0,0,.029.035,48.517,67.253.027.042,0,0,.023.05L625.3,240.541a.382.382,0,0,1-.175.48l-12.453,6.7,5.621,27.383,14.214,4.543a.383.383,0,0,1,.267.361l.81,69.615,0,.05-.008.042-12.733,64.774a.386.386,0,0,1-.574.255L615,411.581,597.544,469.75l-.012.031v0a.379.379,0,0,1-.056.094l-53.289,72.278a.3.3,0,0,1-.061.071l0,0,0,0,0,0v0h0l0,0,0,0h0l-.012.011-79.224,59.019a.374.374,0,0,1-.407.033.385.385,0,0,1-.205-.353l.476-14.329L387.87,629.6a.4.4,0,0,1-.3.033L233.685,584.41l54.969,51.117a.385.385,0,0,1-.261.666m-77.2-17.751L287.1,635.129l-55.063-51.2-18.406-5.106Zm22.884-34.72L387.146,628.7,371.3,565.386Zm138-18.438L387.862,628.4l55.995-72.708Zm72.866-9.737L389.13,628.011l75.641-42.29,1.1-32.975Zm-272,11.984,37.531,50.149,2.406-39.069ZM92.8,545.3l116.467,72.057-37.539-50.159Zm372.729,40.886-.467,13.995,73.872-55.036Zm1.118-33.537-1.089,32.64,76.376-42.7ZM214,572.819,232.164,583.1,282,532.619,216.343,534.8Zm69.118-40.237-49.825,50.472,137.822-18.419-8.681-34.689ZM213.68,578.036l15.644,4.34-15.375-8.706Zm-41.5-11.514,40.74,11.3.282-4.578-62.46-35.369Zm-21.465-29.541L213.258,572.4l2.316-37.572Zm-58.476,7.364,78.728,21.843-21.8-29.136ZM363.22,529.921l8.662,34.613,72.639-9.707,21.82-28.333Zm103.5-2.66L445.6,554.68l20.293-2.711Zm.793-.711-.845,25.317,74.915-10.01ZM82.231,496.218l8.39,47.559,57.585-7.376Zm-44.1-26.859,50.994,72.5L72.019,490Zm430.275,56.59,75.22,15.542L565,484.027ZM565.975,483.6,545.187,539.51l50.833-68.947ZM73.031,490.613,89,539.03l-7.646-43.344ZM220.259,458.77l-70.026,77.459,65.386-2.172Zm-76.645,3.648,6.037,73.309L219.8,458.134Zm-66.241,3.723,71.5,69.511-6.028-73.192Zm4.682,29.071,64.572,39.329L77.064,466.911Zm139.015-37.1-4.678,75.919,66.395-2.206,63.484-64.309Zm125.851,9.837L283.9,531.787l78.342-2.6Zm.78-.046,15.329,61.254,102.563-3.406Zm.618-.551,118.374,58.082L458.846,445.6Zm157.966-31.093-38.4,89.084,97.491-42.315L588.8,420.017ZM459.6,445.447l7.777,79.116,37.992-88.126ZM72.661,489.488l8.52,5.19-5.021-28.468-10.972.626Zm-34.647-21.1,33.633,20.487-7.253-21.991Zm551.231-47.363-22.9,61.581,30.4-13.2Zm-3.113-26.774,3.648,25.2,7.514,48.456,17.029-56.734ZM6.366,382.764l30.659,84.91,27.12-1.548-7.85-23.8Zm214.69,74.575,125.145,9.4L231.836,339.789l-22.5,14.719Zm228.086-110.5L348.125,466.6l110.645-21.778ZM318.178,283.831l29.2,182.474L448.819,346.032ZM57.627,443.918l7.31,22.164,10.755-.614ZM232.485,339.364,346.542,465.97,317.4,283.815ZM137.826,401.5l-60.405,63.87,65.362-3.677Zm-80.85,40.442L76.5,465.229,137.354,400.9,38.59,386.205Zm81.613-40.54,4.962,60.248,76.021-4.275Zm.238-.768L220.234,456.9,208.618,354.978Zm311.038-54.253,9.663,98.3,46.211-9.1,30.634-71.055Zm-443.653,35,49.431,58.967-17.9-54.276ZM537.089,364.8l-30.434,70.6,82.312-16.2-3.685-25.464Zm78.143,46.019,4.958,2.976L631.3,357.28ZM585.99,393.268l28.562,17.146,18.1-60.313-51.776,7.862ZM38.321,385.387l98.818,14.7L91.583,349.53,33.532,370.876Zm54.04-36.141L137.824,399.7l5.139-69.06Zm51.394-18.9-5.129,68.926,63.99-90.567Zm59.62-21.384L139.6,399.223l68.92-45.1Zm334.65,55.5,47.117,28.287-5.021-34.678ZM6.813,380.7l30.657,4.563-4.659-14.122ZM21.5,336.837,5.909,380.214l26.661-9.8Zm-18.44-55.9L5.6,378.8l15.506-43.15Zm18.863,54.727,11.374,34.482,57.738-21.23-52.813-58.61Zm545.889-62.679-30.332,90.788,42.537-6.456ZM450.441,345.719l85.814,18L511.192,307.5Zm61.408-38.635,25.011,56.108,30.39-90.964Zm56.68-34.465L580.771,357.2l51.7-7.848Zm-364.37,36.448,5.081,44.586,22.075-14.442ZM38.7,289.688l53.112,58.944L143.026,329.8l7.161-96.226Zm529.857-18.244,63.962,76.766L617.63,275.695l-35.742-11.424Zm49.915,4.518,14.3,69.659-.76-65.331Zm-299.755,7.274L449.17,345.35,476.722,231Zm158.653-51.622L450.027,345.071l60.849-38.284ZM204.371,308.155l27.594,30.632,83.769-54.8ZM3.2,278.934l18.325,55.547,16.049-44.665Zm147.721-44.915-7.107,95.488,59.221-21.776Zm.653-.407,52.231,73.878,112.34-24.38Zm326.441-2.421,33.514,75.184,55.614-34.989ZM3.057,278.082,37.57,289.008,20.251,202.587Zm42.722-70.638-7.262,81.474,111-55.87ZM20.772,201.27l17.156,85.616,7.1-79.629ZM335.04,188.16,318.174,282.6l157.8-52.158Zm-183.5,44.64,164.877,49.59L226.05,186.315Zm75.17-46.9,90.724,96.448,16.86-94.413L259.445,165.48Zm356.115,77.864,34.622,11.066L611.965,248.1Zm-99.3-30.93L567.492,270.7l-1.386-11.472Zm87.615,28-2.592,9.732,12.316-6.623Zm-4.238-1.354,1.189,9.82,2.316-8.7Zm4.434.611,10.467,3.345,29.99-16.126-16.128-78.575Zm-4.536-1.45,3.8,1.217,24.512-92.042-36.919,19.746Zm-88.572-28.306L566,258.387l-8.526-70.433Zm118.741-59.071,15.533,75.664,11.946-6.425ZM76.445,158.413l74.031,73.824L185.23,143.46Zm-30.6,48.254L149.371,232.22,75.593,158.65,48.252,179.7ZM185.961,143.7,151.4,231.984l74.114-46.24Zm149.213,43.7L475.81,229.591l-126.831-119.5Zm14.853-77.377,126.825,119.5-1.859-90.283Zm170.76,39.92-42.6,79.558,79.193-42.363-3.57-29.474Zm-45.02-10.525,1.843,89.536,42.4-79.191ZM21.142,200.571l23.951,5.912,2.329-26.146Zm29.071-51.547L21.826,198.812,47.909,174.9ZM47.807,176.03,27.118,195l20.4-15.706Zm212.507-11.091,74.12,22.238L348.2,110.106Zm294.3-7.09,3.5,28.9,36.535-19.54ZM187.086,143.771l39.092,41.558,32.287-20.143ZM48.648,175.262l-.3,3.4,26.532-20.426-5.19-2.262Zm2.441-27.394-2.341,26.259,20.166-18.492Zm503.423,9.169,40.3,9.421L547.76,101.236ZM187.392,143.059l71.94,21.586,87.37-54.51ZM101.825,126.5l-25.29,31.127,108.237-14.878L126.56,103.821ZM70.3,155.4l5.1,2.222,3.8-10.379Zm450.858-6.162,32.552,7.61-6.75-55.795Zm-440.73-3.124-3.658,10,21.173-26.06Zm-29.053,1.041,18.156,7.91,10.241-9.39,20.85-57Zm424.372-8.534,44.638,10.437,26.152-48.84-71.51,3.43ZM101.927,87.349l-20.921,57.2,20.261-18.578,20.564-25.311ZM225.113,57.856l-38.624,84.606L347.437,109.2Zm-97.971,45.431,58.216,38.931L176.54,57.994Zm50.1-45.94,8.816,84.2L224.4,57.558,191.9,43.913Zm174.246,52.229,123.488,28.867-.716-34.757Zm-229.019-8.488-17.326,21.324,20.756-19.03Zm318.5-40.208-90.546,47.977,123.822-5.939-.618-29.944ZM225.432,57.157,347.99,108.6,316.849,37.422l-82.2-.451Zm153.38-19.291-29.32,70.619L440,60.525Zm-61.124-.438,31.029,70.917,29.3-70.587ZM474.4,73.26l.609,29.622L545.3,99.51ZM122.96,100.491l3.526,2.356,49.955-45.806-2.076-19.825ZM102.417,86.753l19.9,13.307L172.652,38.11Zm371.97-14.317,70.556,26.123L473.8,44.053ZM441.879,60.4l31.734,11.748-.582-28.255Zm-60.7-22.478,59.739,22.121,31.106-16.482ZM192.521,43.34l32.2,13.519,9.081-19.894-34.129-.186ZM175.1,36.861,177.147,56.4l13.97-12.81Zm1.484-.209,15.157,6.362,6.807-6.241Zm202.635.38L468.953,42.6,386.747,23.1ZM387.125,22.4l81.234,19.274L392.913,11.683Zm-69.772,14.26,59.449.326L302.789,3.37ZM305.8,3.893,378.43,36.879l7.543-13.964ZM235,36.2l81.515.447L301.8,3.025l-55.054,7.449Zm-58.335-.321,22.72.125,17.1-15.685Z" transform="translate(2.043 2.041)" fill="#2477c1"/>
    <path id="Path_431" data-name="Path 431" d="M98.888,22.17a4.646,4.646,0,1,1-4.645-4.645,4.647,4.647,0,0,1,4.645,4.645" transform="translate(82.451 16.127)" fill="#2477c1"/>
    <path id="Path_432" data-name="Path 432" d="M119.953,12.765a3.534,3.534,0,1,1-3.533-3.533,3.534,3.534,0,0,1,3.533,3.533" transform="translate(103.883 8.496)" fill="#2477c1"/>
    <path id="Path_433" data-name="Path 433" d="M18.5,107.834a4.646,4.646,0,1,1-4.645-4.647,4.645,4.645,0,0,1,4.645,4.647" transform="translate(8.469 94.958)" fill="#2477c1"/>
    <path id="Path_434" data-name="Path 434" d="M9.292,148.24a4.646,4.646,0,1,1-4.647-4.647,4.645,4.645,0,0,1,4.647,4.647" transform="translate(0 132.142)" fill="#2477c1"/>
    <path id="Path_435" data-name="Path 435" d="M54.964,286.693a4.646,4.646,0,1,1-4.645-4.647,4.647,4.647,0,0,1,4.645,4.647" transform="translate(42.03 259.553)" fill="#2477c1"/>
    <path id="Path_436" data-name="Path 436" d="M128.874,307.2a4.646,4.646,0,1,1-4.647-4.645,4.647,4.647,0,0,1,4.647,4.645" transform="translate(110.046 278.425)" fill="#2477c1"/>
    <path id="Path_437" data-name="Path 437" d="M85.708,282.754a4.646,4.646,0,1,1-4.645-4.647,4.645,4.645,0,0,1,4.645,4.647" transform="translate(70.322 255.928)" fill="#2477c1"/>
    <path id="Path_438" data-name="Path 438" d="M251.208,277.254a4.646,4.646,0,1,1-4.645-4.647,4.645,4.645,0,0,1,4.645,4.647" transform="translate(222.624 250.867)" fill="#2477c1"/>
    <path id="Path_439" data-name="Path 439" d="M287.541,192.976a4.646,4.646,0,1,1-4.647-4.645,4.645,4.645,0,0,1,4.647,4.645" transform="translate(256.059 173.312)" fill="#2477c1"/>
    <path id="Path_440" data-name="Path 440" d="M241.987,183.421a4.647,4.647,0,1,1-4.647-4.647,4.647,4.647,0,0,1,4.647,4.647" transform="translate(214.136 164.517)" fill="#2477c1"/>
    <path id="Path_441" data-name="Path 441" d="M251.208,277.254a4.646,4.646,0,1,1-4.645-4.647,4.645,4.645,0,0,1,4.645,4.647" transform="translate(222.624 250.867)" fill="#2477c1"/>
    <path id="Path_442" data-name="Path 442" d="M188.708,246.587a4.646,4.646,0,1,1-4.645-4.645,4.647,4.647,0,0,1,4.645,4.645" transform="translate(165.108 222.647)" fill="#2477c1"/>
    <path id="Path_443" data-name="Path 443" d="M314.874,221.754a4.646,4.646,0,1,1-4.645-4.647,4.645,4.645,0,0,1,4.645,4.647" transform="translate(281.212 199.793)" fill="#2477c1"/>
    <path id="Path_444" data-name="Path 444" d="M303.708,144.587a4.646,4.646,0,1,1-4.645-4.645,4.647,4.647,0,0,1,4.645,4.645" transform="translate(270.937 128.782)" fill="#2477c1"/>
    <path id="Path_445" data-name="Path 445" d="M337.683,185.363a4.646,4.646,0,1,1-4.645-4.645,4.647,4.647,0,0,1,4.645,4.645" transform="translate(302.202 166.306)" fill="#2477c1"/>
    <path id="Path_446" data-name="Path 446" d="M287.541,192.976a4.646,4.646,0,1,1-4.647-4.645,4.645,4.645,0,0,1,4.647,4.645" transform="translate(256.059 173.312)" fill="#2477c1"/>
    <path id="Path_447" data-name="Path 447" d="M329.39,218.563a3.524,3.524,0,1,1-3.524-3.524,3.525,3.525,0,0,1,3.524,3.524" transform="translate(296.637 197.89)" fill="#2477c1"/>
    <path id="Path_448" data-name="Path 448" d="M337.683,185.363a4.646,4.646,0,1,1-4.645-4.645,4.647,4.647,0,0,1,4.645,4.645" transform="translate(302.202 166.306)" fill="#2477c1"/>
    <path id="Path_449" data-name="Path 449" d="M318.924,247.861a4.646,4.646,0,1,1-4.645-4.645,4.645,4.645,0,0,1,4.645,4.645" transform="translate(284.939 223.82)" fill="#2477c1"/>
    <path id="Path_450" data-name="Path 450" d="M314.874,221.754a4.646,4.646,0,1,1-4.645-4.647,4.645,4.645,0,0,1,4.645,4.647" transform="translate(281.212 199.793)" fill="#2477c1"/>
    <path id="Path_451" data-name="Path 451" d="M291.168,285.512a4.647,4.647,0,1,1-4.649-4.647,4.647,4.647,0,0,1,4.649,4.647" transform="translate(259.395 258.466)" fill="#2477c1"/>
    <path id="Path_452" data-name="Path 452" d="M319.709,248.116a5.177,5.177,0,1,1-5.177-5.177,5.177,5.177,0,0,1,5.177,5.177" transform="translate(284.684 223.565)" fill="#2477c1"/>
    <path id="Path_453" data-name="Path 453" d="M251.208,277.254a4.646,4.646,0,1,1-4.645-4.647,4.645,4.645,0,0,1,4.645,4.647" transform="translate(222.624 250.867)" fill="#2477c1"/>
    <path id="Path_454" data-name="Path 454" d="M291.168,285.512a4.647,4.647,0,1,1-4.649-4.647,4.647,4.647,0,0,1,4.649,4.647" transform="translate(259.395 258.466)" fill="#2477c1"/>
    <path id="Path_455" data-name="Path 455" d="M251.263,316.687a5.562,5.562,0,1,1-5.563-5.563,5.563,5.563,0,0,1,5.563,5.563" transform="translate(220.988 286.312)" fill="#2477c1"/>
    <path id="Path_456" data-name="Path 456" d="M254.8,278.418a7.075,7.075,0,1,1-7.076-7.076,7.077,7.077,0,0,1,7.076,7.076" transform="translate(221.459 249.703)" fill="#2477c1"/>
    <path id="Path_457" data-name="Path 457" d="M209.827,330.985a4.646,4.646,0,1,1-4.647-4.645,4.647,4.647,0,0,1,4.647,4.645" transform="translate(184.543 300.315)" fill="#2477c1"/>
    <path id="Path_458" data-name="Path 458" d="M291.168,285.512a4.647,4.647,0,1,1-4.649-4.647,4.647,4.647,0,0,1,4.649,4.647" transform="translate(259.395 258.466)" fill="#2477c1"/>
    <path id="Path_459" data-name="Path 459" d="M128.874,307.2a4.646,4.646,0,1,1-4.647-4.645,4.647,4.647,0,0,1,4.647,4.645" transform="translate(110.046 278.425)" fill="#2477c1"/>
    <path id="Path_460" data-name="Path 460" d="M188.708,246.587a4.646,4.646,0,1,1-4.645-4.645,4.647,4.647,0,0,1,4.645,4.645" transform="translate(165.108 222.647)" fill="#2477c1"/>
    <path id="Path_461" data-name="Path 461" d="M209.827,330.985a4.646,4.646,0,1,1-4.647-4.645,4.647,4.647,0,0,1,4.647,4.645" transform="translate(184.543 300.315)" fill="#2477c1"/>
    <path id="Path_462" data-name="Path 462" d="M133.62,308.736a7.854,7.854,0,1,1-7.854-7.854,7.853,7.853,0,0,1,7.854,7.854" transform="translate(108.509 276.887)" fill="#2477c1"/>
    <path id="Path_463" data-name="Path 463" d="M158.121,334.4a4.646,4.646,0,1,1-4.647-4.647,4.645,4.645,0,0,1,4.647,4.647" transform="translate(136.96 303.452)" fill="#2477c1"/>
    <path id="Path_464" data-name="Path 464" d="M117.706,325.511a4.646,4.646,0,1,1-4.647-4.647,4.645,4.645,0,0,1,4.647,4.647" transform="translate(99.768 295.276)" fill="#2477c1"/>
    <path id="Path_465" data-name="Path 465" d="M122.874,241.643A4.646,4.646,0,1,1,118.227,237a4.645,4.645,0,0,1,4.647,4.647" transform="translate(104.524 218.096)" fill="#2477c1"/>
    <path id="Path_466" data-name="Path 466" d="M188.708,246.587a4.646,4.646,0,1,1-4.645-4.645,4.647,4.647,0,0,1,4.645,4.645" transform="translate(165.108 222.647)" fill="#2477c1"/>
    <path id="Path_467" data-name="Path 467" d="M241.987,183.421a4.647,4.647,0,1,1-4.647-4.647,4.647,4.647,0,0,1,4.647,4.647" transform="translate(214.136 164.517)" fill="#2477c1"/>
    <path id="Path_468" data-name="Path 468" d="M303.708,144.587a4.646,4.646,0,1,1-4.645-4.645,4.647,4.647,0,0,1,4.645,4.645" transform="translate(270.937 128.782)" fill="#2477c1"/>
    <path id="Path_469" data-name="Path 469" d="M289.914,193.745a6.25,6.25,0,1,1-6.25-6.25,6.25,6.25,0,0,1,6.25,6.25" transform="translate(255.29 172.543)" fill="#2477c1"/>
    <path id="Path_470" data-name="Path 470" d="M256.474,123.287a4.646,4.646,0,1,1-4.645-4.645,4.647,4.647,0,0,1,4.645,4.645" transform="translate(227.47 109.18)" fill="#2477c1"/>
    <path id="Path_471" data-name="Path 471" d="M246.069,184.743a7.406,7.406,0,1,1-7.406-7.406,7.407,7.407,0,0,1,7.406,7.406" transform="translate(212.814 163.195)" fill="#2477c1"/>
    <path id="Path_472" data-name="Path 472" d="M173.374,150.753a4.646,4.646,0,1,1-4.645-4.645,4.645,4.645,0,0,1,4.645,4.645" transform="translate(150.997 134.456)" fill="#2477c1"/>
    <path id="Path_473" data-name="Path 473" d="M192.629,247.858a7.3,7.3,0,1,1-7.3-7.3,7.3,7.3,0,0,1,7.3,7.3" transform="translate(163.837 221.377)" fill="#2477c1"/>
    <path id="Path_474" data-name="Path 474" d="M113.987,163.642A4.647,4.647,0,1,1,109.34,159a4.645,4.645,0,0,1,4.647,4.645" transform="translate(96.344 146.317)" fill="#2477c1"/>
    <path id="Path_475" data-name="Path 475" d="M122.874,241.643A4.646,4.646,0,1,1,118.227,237a4.645,4.645,0,0,1,4.647,4.647" transform="translate(104.524 218.096)" fill="#2477c1"/>
    <path id="Path_476" data-name="Path 476" d="M85.708,282.754a4.646,4.646,0,1,1-4.645-4.647,4.645,4.645,0,0,1,4.645,4.647" transform="translate(70.322 255.928)" fill="#2477c1"/>
    <path id="Path_477" data-name="Path 477" d="M119.248,326.01a5.689,5.689,0,1,1-5.688-5.688,5.687,5.687,0,0,1,5.688,5.688" transform="translate(99.268 294.777)" fill="#2477c1"/>
    <path id="Path_478" data-name="Path 478" d="M54.964,286.693a4.646,4.646,0,1,1-4.645-4.647,4.647,4.647,0,0,1,4.645,4.647" transform="translate(42.03 259.553)" fill="#2477c1"/>
    <path id="Path_479" data-name="Path 479" d="M85.708,282.754a4.646,4.646,0,1,1-4.645-4.647,4.645,4.645,0,0,1,4.645,4.647" transform="translate(70.322 255.928)" fill="#2477c1"/>
    <path id="Path_480" data-name="Path 480" d="M79.874,211.921a4.646,4.646,0,1,1-4.645-4.647,4.645,4.645,0,0,1,4.645,4.647" transform="translate(64.953 190.744)" fill="#2477c1"/>
    <path id="Path_481" data-name="Path 481" d="M122.874,241.643A4.646,4.646,0,1,1,118.227,237a4.645,4.645,0,0,1,4.647,4.647" transform="translate(104.524 218.096)" fill="#2477c1"/>
    <path id="Path_482" data-name="Path 482" d="M47.763,245.865a4.646,4.646,0,1,1-4.645-4.647,4.645,4.645,0,0,1,4.645,4.647" transform="translate(35.403 221.981)" fill="#2477c1"/>
    <path id="Path_483" data-name="Path 483" d="M85.708,282.754a4.646,4.646,0,1,1-4.645-4.647,4.645,4.645,0,0,1,4.645,4.647" transform="translate(70.322 255.928)" fill="#2477c1"/>
    <path id="Path_484" data-name="Path 484" d="M27.08,247.045a4.646,4.646,0,1,1-4.645-4.647,4.645,4.645,0,0,1,4.645,4.647" transform="translate(16.369 223.067)" fill="#2477c1"/>
    <path id="Path_485" data-name="Path 485" d="M54.964,286.693a4.646,4.646,0,1,1-4.645-4.647,4.647,4.647,0,0,1,4.645,4.647" transform="translate(42.03 259.553)" fill="#2477c1"/>
    <path id="Path_486" data-name="Path 486" d="M47.763,245.865a4.646,4.646,0,1,1-4.645-4.647,4.645,4.645,0,0,1,4.645,4.647" transform="translate(35.403 221.981)" fill="#2477c1"/>
    <path id="Path_487" data-name="Path 487" d="M27.08,247.045a4.646,4.646,0,1,1-4.645-4.647,4.645,4.645,0,0,1,4.645,4.647" transform="translate(16.369 223.067)" fill="#2477c1"/>
    <path id="Path_488" data-name="Path 488" d="M10.68,201.626a4.646,4.646,0,1,1-4.647-4.645,4.647,4.647,0,0,1,4.647,4.645" transform="translate(1.277 181.272)" fill="#2477c1"/>
    <path id="Path_489" data-name="Path 489" d="M49.891,246.553a6.084,6.084,0,1,1-6.083-6.083,6.084,6.084,0,0,1,6.083,6.083" transform="translate(34.714 221.293)" fill="#2477c1"/>
    <path id="Path_490" data-name="Path 490" d="M79.874,211.921a4.646,4.646,0,1,1-4.645-4.647,4.645,4.645,0,0,1,4.645,4.647" transform="translate(64.953 190.744)" fill="#2477c1"/>
    <path id="Path_491" data-name="Path 491" d="M173.374,150.753a4.646,4.646,0,1,1-4.645-4.645,4.645,4.645,0,0,1,4.645,4.645" transform="translate(150.997 134.456)" fill="#2477c1"/>
    <path id="Path_492" data-name="Path 492" d="M256.474,123.287a4.646,4.646,0,1,1-4.645-4.645,4.647,4.647,0,0,1,4.645,4.645" transform="translate(227.47 109.18)" fill="#2477c1"/>
    <path id="Path_493" data-name="Path 493" d="M334.6,148.246a2.848,2.848,0,1,1-2.848-2.848,2.848,2.848,0,0,1,2.848,2.848" transform="translate(302.676 133.803)" fill="#2477c1"/>
    <path id="Path_494" data-name="Path 494" d="M337.683,185.363a4.646,4.646,0,1,1-4.645-4.645,4.647,4.647,0,0,1,4.645,4.645" transform="translate(302.202 166.306)" fill="#2477c1"/>
    <path id="Path_495" data-name="Path 495" d="M318.168,90.29a4.646,4.646,0,1,1-4.645-4.645,4.647,4.647,0,0,1,4.645,4.645" transform="translate(284.244 78.815)" fill="#2477c1"/>
    <path id="Path_496" data-name="Path 496" d="M256.474,123.287a4.646,4.646,0,1,1-4.645-4.645,4.647,4.647,0,0,1,4.645,4.645" transform="translate(227.47 109.18)" fill="#2477c1"/>
    <path id="Path_497" data-name="Path 497" d="M303.708,144.587a4.646,4.646,0,1,1-4.645-4.645,4.647,4.647,0,0,1,4.645,4.645" transform="translate(270.937 128.782)" fill="#2477c1"/>
    <path id="Path_498" data-name="Path 498" d="M333.384,128.627a4.646,4.646,0,1,1-4.647-4.645,4.647,4.647,0,0,1,4.647,4.645" transform="translate(298.246 114.095)" fill="#2477c1"/>
    <path id="Path_499" data-name="Path 499" d="M318.168,90.29a4.646,4.646,0,1,1-4.645-4.645,4.647,4.647,0,0,1,4.645,4.645" transform="translate(284.244 78.815)" fill="#2477c1"/>
    <path id="Path_500" data-name="Path 500" d="M303.708,144.587a4.646,4.646,0,1,1-4.645-4.645,4.647,4.647,0,0,1,4.645,4.645" transform="translate(270.937 128.782)" fill="#2477c1"/>
    <path id="Path_501" data-name="Path 501" d="M189.541,60.221a4.646,4.646,0,1,1-4.647-4.647,4.645,4.645,0,0,1,4.647,4.647" transform="translate(165.874 51.142)" fill="#2477c1"/>
    <path id="Path_502" data-name="Path 502" d="M318.168,90.29a4.646,4.646,0,1,1-4.645-4.645,4.647,4.647,0,0,1,4.645,4.645" transform="translate(284.244 78.815)" fill="#2477c1"/>
    <path id="Path_503" data-name="Path 503" d="M256.474,123.287a4.646,4.646,0,1,1-4.645-4.645,4.647,4.647,0,0,1,4.645,4.645" transform="translate(227.47 109.18)" fill="#2477c1"/>
    <path id="Path_504" data-name="Path 504" d="M254.467,25.819a4.646,4.646,0,1,1-4.645-4.647,4.645,4.645,0,0,1,4.645,4.647" transform="translate(225.623 19.484)" fill="#2477c1"/>
    <path id="Path_505" data-name="Path 505" d="M291.465,54.8a3.676,3.676,0,1,1-3.677-3.677,3.678,3.678,0,0,1,3.677,3.677" transform="translate(261.455 47.045)" fill="#2477c1"/>
    <path id="Path_506" data-name="Path 506" d="M205.1,22.753a4.646,4.646,0,1,1-4.647-4.645,4.645,4.645,0,0,1,4.647,4.645" transform="translate(180.19 16.664)" fill="#2477c1"/>
    <path id="Path_507" data-name="Path 507" d="M212.459,9.121a4.646,4.646,0,1,1-4.645-4.645,4.647,4.647,0,0,1,4.645,4.645" transform="translate(186.965 4.119)" fill="#2477c1"/>
    <path id="Path_508" data-name="Path 508" d="M234.885,33.9a2.8,2.8,0,1,1-2.8-2.8,2.8,2.8,0,0,1,2.8,2.8" transform="translate(211.001 28.624)" fill="#2477c1"/>
    <path id="Path_509" data-name="Path 509" d="M251.952,40.257a2.7,2.7,0,1,1-2.7-2.7,2.7,2.7,0,0,1,2.7,2.7" transform="translate(226.895 34.564)" fill="#2477c1"/>
    <path id="Path_510" data-name="Path 510" d="M252.4,74.643a2.7,2.7,0,1,1-2.7-2.7,2.7,2.7,0,0,1,2.7,2.7" transform="translate(227.304 66.207)" fill="#2477c1"/>
    <path id="Path_511" data-name="Path 511" d="M252.274,56a2.7,2.7,0,1,1-2.7-2.7,2.7,2.7,0,0,1,2.7,2.7" transform="translate(227.192 49.049)" fill="#2477c1"/>
    <path id="Path_512" data-name="Path 512" d="M276,80.24a2.7,2.7,0,1,1-2.7-2.7,2.7,2.7,0,0,1,2.7,2.7" transform="translate(249.022 71.36)" fill="#2477c1"/>
    <path id="Path_513" data-name="Path 513" d="M293.546,84.174a2.7,2.7,0,1,1-2.7-2.7,2.7,2.7,0,0,1,2.7,2.7" transform="translate(265.172 74.978)" fill="#2477c1"/>
    <path id="Path_514" data-name="Path 514" d="M295.664,99.907a2.7,2.7,0,1,1-2.7-2.7,2.7,2.7,0,0,1,2.7,2.7" transform="translate(267.121 89.459)" fill="#2477c1"/>
    <path id="Path_515" data-name="Path 515" d="M299.991,136.986a2.7,2.7,0,1,1-2.7-2.7,2.7,2.7,0,0,1,2.7,2.7" transform="translate(271.103 123.581)" fill="#2477c1"/>
    <path id="Path_516" data-name="Path 516" d="M308.158,139.819a2.7,2.7,0,1,1-2.7-2.7,2.7,2.7,0,0,1,2.7,2.7" transform="translate(278.619 126.188)" fill="#2477c1"/>
    <path id="Path_517" data-name="Path 517" d="M271.491,161.986a2.7,2.7,0,1,1-2.7-2.7,2.7,2.7,0,0,1,2.7,2.7" transform="translate(244.876 146.587)" fill="#2477c1"/>
    <path id="Path_518" data-name="Path 518" d="M307.325,188.653a2.7,2.7,0,1,1-2.7-2.7,2.7,2.7,0,0,1,2.7,2.7" transform="translate(277.852 171.127)" fill="#2477c1"/>
    <path id="Path_519" data-name="Path 519" d="M309.991,207.319a2.7,2.7,0,1,1-2.7-2.7,2.7,2.7,0,0,1,2.7,2.7" transform="translate(280.306 188.305)" fill="#2477c1"/>
    <path id="Path_520" data-name="Path 520" d="M268.825,229.153a2.7,2.7,0,1,1-2.7-2.7,2.7,2.7,0,0,1,2.7,2.7" transform="translate(242.423 208.397)" fill="#2477c1"/>
    <path id="Path_521" data-name="Path 521" d="M244.325,234.487a2.7,2.7,0,1,1-2.7-2.7,2.7,2.7,0,0,1,2.7,2.7" transform="translate(219.877 213.304)" fill="#2477c1"/>
    <path id="Path_522" data-name="Path 522" d="M198.658,296.819a2.7,2.7,0,1,1-2.7-2.7,2.7,2.7,0,0,1,2.7,2.7" transform="translate(177.851 270.667)" fill="#2477c1"/>
    <path id="Path_523" data-name="Path 523" d="M193.825,278.153a2.7,2.7,0,1,1-2.7-2.7,2.7,2.7,0,0,1,2.7,2.7" transform="translate(173.404 253.49)" fill="#2477c1"/>
    <path id="Path_524" data-name="Path 524" d="M152.325,279.653a2.7,2.7,0,1,1-2.7-2.7,2.7,2.7,0,0,1,2.7,2.7" transform="translate(135.213 254.87)" fill="#2477c1"/>
    <path id="Path_525" data-name="Path 525" d="M115.991,303.653a2.7,2.7,0,1,1-2.7-2.7,2.7,2.7,0,0,1,2.7,2.7" transform="translate(101.777 276.956)" fill="#2477c1"/>
    <path id="Path_526" data-name="Path 526" d="M94.658,297.653a2.7,2.7,0,1,1-2.7-2.7,2.7,2.7,0,0,1,2.7,2.7" transform="translate(82.145 271.435)" fill="#2477c1"/>
    <path id="Path_527" data-name="Path 527" d="M117.658,280.819a2.7,2.7,0,1,1-2.7-2.7,2.7,2.7,0,0,1,2.7,2.7" transform="translate(103.311 255.943)" fill="#2477c1"/>
    <path id="Path_528" data-name="Path 528" d="M48.158,260.153a2.7,2.7,0,1,1-2.7-2.7,2.7,2.7,0,0,1,2.7,2.7" transform="translate(39.354 236.925)" fill="#2477c1"/>
    <path id="Path_529" data-name="Path 529" d="M42.658,257.487a2.7,2.7,0,1,1-2.7-2.7,2.7,2.7,0,0,1,2.7,2.7" transform="translate(34.292 234.47)" fill="#2477c1"/>
    <path id="Path_530" data-name="Path 530" d="M38.658,245.32a2.7,2.7,0,1,1-2.7-2.7,2.7,2.7,0,0,1,2.7,2.7" transform="translate(30.611 223.273)" fill="#2477c1"/>
    <path id="Path_531" data-name="Path 531" d="M34.491,232.987a2.7,2.7,0,1,1-2.7-2.7,2.7,2.7,0,0,1,2.7,2.7" transform="translate(26.777 211.924)" fill="#2477c1"/>
    <path id="Path_532" data-name="Path 532" d="M24.825,203.319a2.7,2.7,0,1,1-2.7-2.7,2.7,2.7,0,0,1,2.7,2.7" transform="translate(17.881 184.624)" fill="#2477c1"/>
    <path id="Path_533" data-name="Path 533" d="M22.325,195.153a2.7,2.7,0,1,1-2.7-2.7,2.7,2.7,0,0,1,2.7,2.7" transform="translate(15.581 177.109)" fill="#2477c1"/>
    <path id="Path_534" data-name="Path 534" d="M79.491,242.987a2.7,2.7,0,1,1-2.7-2.7,2.7,2.7,0,0,1,2.7,2.7" transform="translate(68.188 221.126)" fill="#2477c1"/>
    <path id="Path_535" data-name="Path 535" d="M52.825,184.153a2.7,2.7,0,1,1-2.7-2.7,2.7,2.7,0,0,1,2.7,2.7" transform="translate(43.648 166.986)" fill="#2477c1"/>
    <path id="Path_536" data-name="Path 536" d="M16.491,176.819a2.7,2.7,0,1,1-2.7-2.7,2.7,2.7,0,0,1,2.7,2.7" transform="translate(10.212 160.237)" fill="#2477c1"/>
    <path id="Path_537" data-name="Path 537" d="M28.97,110.36a2.7,2.7,0,1,1-2.7-2.7,2.7,2.7,0,0,1,2.7,2.7" transform="translate(21.696 99.078)" fill="#2477c1"/>
    <path id="Path_538" data-name="Path 538" d="M58.325,67.82a2.7,2.7,0,1,1-2.7-2.7,2.7,2.7,0,0,1,2.7,2.7" transform="translate(48.71 59.929)" fill="#2477c1"/>
    <path id="Path_539" data-name="Path 539" d="M30.158,93.487a2.7,2.7,0,1,1-2.7-2.7,2.7,2.7,0,0,1,2.7,2.7" transform="translate(22.789 83.549)" fill="#2477c1"/>
    <path id="Path_540" data-name="Path 540" d="M70.825,56.32a2.7,2.7,0,1,1-2.7-2.7,2.7,2.7,0,0,1,2.7,2.7" transform="translate(60.213 49.346)" fill="#2477c1"/>
    <path id="Path_541" data-name="Path 541" d="M46.825,78.487a2.7,2.7,0,1,1-2.7-2.7,2.7,2.7,0,0,1,2.7,2.7" transform="translate(38.127 69.745)" fill="#2477c1"/>
    <path id="Path_542" data-name="Path 542" d="M122.158,32.225a2.7,2.7,0,1,1-2.7-2.7,2.7,2.7,0,0,1,2.7,2.7" transform="translate(107.452 27.172)" fill="#2477c1"/>
    <path id="Path_543" data-name="Path 543" d="M127.158,21.32a2.7,2.7,0,1,1-2.7-2.7,2.7,2.7,0,0,1,2.7,2.7" transform="translate(112.053 17.137)" fill="#2477c1"/>
    <path id="Path_544" data-name="Path 544" d="M104.991,25.32a2.7,2.7,0,1,1-2.7-2.7,2.7,2.7,0,0,1,2.7,2.7" transform="translate(91.654 20.818)" fill="#2477c1"/>
    <path id="Path_545" data-name="Path 545" d="M97.325,32.32a2.7,2.7,0,1,1-2.7-2.7,2.7,2.7,0,0,1,2.7,2.7" transform="translate(84.6 27.26)" fill="#2477c1"/>
    <path id="Path_546" data-name="Path 546" d="M109.325,21.154a2.7,2.7,0,1,1-2.7-2.7,2.7,2.7,0,0,1,2.7,2.7" transform="translate(95.643 16.984)" fill="#2477c1"/>
    <path id="Path_547" data-name="Path 547" d="M170.158,21.487a2.7,2.7,0,1,1-2.7-2.7,2.7,2.7,0,0,1,2.7,2.7" transform="translate(151.624 17.291)" fill="#2477c1"/>
    <path id="Path_548" data-name="Path 548" d="M139.991,88.487a2.7,2.7,0,1,1-2.7-2.7,2.7,2.7,0,0,1,2.7,2.7" transform="translate(123.863 78.947)" fill="#2477c1"/>
    <path id="Path_549" data-name="Path 549" d="M122.825,99.153a2.7,2.7,0,1,1-2.7-2.7,2.7,2.7,0,0,1,2.7,2.7" transform="translate(108.066 88.765)" fill="#2477c1"/>
    <path id="Path_550" data-name="Path 550" d="M179.325,99.987a2.7,2.7,0,1,1-2.7-2.7,2.7,2.7,0,0,1,2.7,2.7" transform="translate(160.06 89.53)" fill="#2477c1"/>
    <path id="Path_551" data-name="Path 551" d="M206.325,14.154a2.7,2.7,0,1,1-2.7-2.7,2.7,2.7,0,0,1,2.7,2.7" transform="translate(184.907 10.542)" fill="#2477c1"/>
    <path id="Path_552" data-name="Path 552" d="M254.467,25.819a4.646,4.646,0,1,1-4.645-4.647,4.645,4.645,0,0,1,4.645,4.647" transform="translate(225.623 19.484)" fill="#2477c1"/>
    <path id="Path_553" data-name="Path 553" d="M165.226,4.645A4.646,4.646,0,1,1,160.581,0a4.648,4.648,0,0,1,4.645,4.645" transform="translate(143.499)" fill="#2477c1"/>
    <path id="Path_554" data-name="Path 554" d="M205.1,22.753a4.646,4.646,0,1,1-4.647-4.645,4.645,4.645,0,0,1,4.647,4.645" transform="translate(180.19 16.664)" fill="#2477c1"/>
    <path id="Path_555" data-name="Path 555" d="M258.018,26.968a7.046,7.046,0,1,1-7.045-7.045,7.046,7.046,0,0,1,7.045,7.045" transform="translate(224.472 18.334)" fill="#2477c1"/>
    <path id="Path_556" data-name="Path 556" d="M189.541,60.221a4.646,4.646,0,1,1-4.647-4.647,4.645,4.645,0,0,1,4.647,4.647" transform="translate(165.874 51.142)" fill="#2477c1"/>
    <path id="Path_557" data-name="Path 557" d="M273.6,128.835a16.223,16.223,0,1,1-16.222-16.222A16.222,16.222,0,0,1,273.6,128.835" transform="translate(221.921 103.632)" fill="#2477c1"/>
    <path id="Path_558" data-name="Path 558" d="M104.708,77.753a4.646,4.646,0,1,1-4.645-4.645,4.645,4.645,0,0,1,4.645,4.645" transform="translate(87.807 67.278)" fill="#2477c1"/>
    <path id="Path_559" data-name="Path 559" d="M173.374,150.753a4.646,4.646,0,1,1-4.645-4.645,4.645,4.645,0,0,1,4.645,4.645" transform="translate(150.997 134.456)" fill="#2477c1"/>
    <path id="Path_560" data-name="Path 560" d="M189.541,60.221a4.646,4.646,0,1,1-4.647-4.647,4.645,4.645,0,0,1,4.647,4.647" transform="translate(165.874 51.142)" fill="#2477c1"/>
    <path id="Path_561" data-name="Path 561" d="M86.374,124.587a4.646,4.646,0,1,1-4.645-4.645,4.647,4.647,0,0,1,4.645,4.645" transform="translate(70.935 110.377)" fill="#2477c1"/>
    <path id="Path_562" data-name="Path 562" d="M113.987,163.642A4.647,4.647,0,1,1,109.34,159a4.645,4.645,0,0,1,4.647,4.645" transform="translate(96.344 146.317)" fill="#2477c1"/>
    <path id="Path_563" data-name="Path 563" d="M184.966,154.509a12.483,12.483,0,1,1-12.482-12.482,12.481,12.481,0,0,1,12.482,12.482" transform="translate(147.241 130.701)" fill="#2477c1"/>
    <path id="Path_564" data-name="Path 564" d="M86.374,124.587a4.646,4.646,0,1,1-4.645-4.645,4.647,4.647,0,0,1,4.645,4.645" transform="translate(70.935 110.377)" fill="#2477c1"/>
    <path id="Path_565" data-name="Path 565" d="M79.874,211.921a4.646,4.646,0,1,1-4.645-4.647,4.645,4.645,0,0,1,4.645,4.647" transform="translate(64.953 190.744)" fill="#2477c1"/>
    <path id="Path_566" data-name="Path 566" d="M116.521,164.464a6.36,6.36,0,1,1-6.36-6.36,6.36,6.36,0,0,1,6.36,6.36" transform="translate(95.523 145.495)" fill="#2477c1"/>
    <path id="Path_567" data-name="Path 567" d="M10.68,201.626a4.646,4.646,0,1,1-4.647-4.645,4.647,4.647,0,0,1,4.647,4.645" transform="translate(1.277 181.272)" fill="#2477c1"/>
    <path id="Path_568" data-name="Path 568" d="M93.866,216.453a14.1,14.1,0,1,1-14.1-14.1,14.1,14.1,0,0,1,14.1,14.1" transform="translate(60.421 186.212)" fill="#2477c1"/>
    <path id="Path_569" data-name="Path 569" d="M27.763,154.087a4.646,4.646,0,1,1-4.645-4.645,4.647,4.647,0,0,1,4.645,4.645" transform="translate(16.998 137.524)" fill="#2477c1"/>
    <path id="Path_570" data-name="Path 570" d="M9.292,148.24a4.646,4.646,0,1,1-4.647-4.647,4.645,4.645,0,0,1,4.647,4.647" transform="translate(0 132.142)" fill="#2477c1"/>
    <path id="Path_571" data-name="Path 571" d="M10.68,201.626a4.646,4.646,0,1,1-4.647-4.645,4.647,4.647,0,0,1,4.647,4.645" transform="translate(1.277 181.272)" fill="#2477c1"/>
    <path id="Path_572" data-name="Path 572" d="M27.763,154.087a4.646,4.646,0,1,1-4.645-4.645,4.647,4.647,0,0,1,4.645,4.645" transform="translate(16.998 137.524)" fill="#2477c1"/>
    <path id="Path_573" data-name="Path 573" d="M86.374,124.587a4.646,4.646,0,1,1-4.645-4.645,4.647,4.647,0,0,1,4.645,4.645" transform="translate(70.935 110.377)" fill="#2477c1"/>
    <path id="Path_574" data-name="Path 574" d="M18.5,107.834a4.646,4.646,0,1,1-4.645-4.647,4.645,4.645,0,0,1,4.645,4.647" transform="translate(8.469 94.958)" fill="#2477c1"/>
    <path id="Path_575" data-name="Path 575" d="M27.763,154.087a4.646,4.646,0,1,1-4.645-4.645,4.647,4.647,0,0,1,4.645,4.645" transform="translate(16.998 137.524)" fill="#2477c1"/>
    <path id="Path_576" data-name="Path 576" d="M18.5,107.834a4.646,4.646,0,1,1-4.645-4.647,4.645,4.645,0,0,1,4.645,4.647" transform="translate(8.469 94.958)" fill="#2477c1"/>
    <path id="Path_577" data-name="Path 577" d="M47.319,85.642A4.646,4.646,0,1,1,42.674,81a4.645,4.645,0,0,1,4.645,4.645" transform="translate(34.994 74.538)" fill="#2477c1"/>
    <path id="Path_578" data-name="Path 578" d="M32.945,79.539a3.685,3.685,0,1,1-3.685-3.685,3.685,3.685,0,0,1,3.685,3.685" transform="translate(23.535 69.805)" fill="#2477c1"/>
    <path id="Path_579" data-name="Path 579" d="M95.1,127.414A10.545,10.545,0,1,1,84.556,116.87,10.546,10.546,0,0,1,95.1,127.414" transform="translate(68.108 107.55)" fill="#2477c1"/>
    <path id="Path_580" data-name="Path 580" d="M104.708,77.753a4.646,4.646,0,1,1-4.645-4.645,4.645,4.645,0,0,1,4.645,4.645" transform="translate(87.807 67.278)" fill="#2477c1"/>
    <path id="Path_581" data-name="Path 581" d="M189.541,60.221a4.646,4.646,0,1,1-4.647-4.647,4.645,4.645,0,0,1,4.647,4.647" transform="translate(165.874 51.142)" fill="#2477c1"/>
    <path id="Path_582" data-name="Path 582" d="M207.633,23.575a6.361,6.361,0,1,1-6.36-6.36,6.36,6.36,0,0,1,6.36,6.36" transform="translate(179.367 15.842)" fill="#2477c1"/>
    <path id="Path_583" data-name="Path 583" d="M98.888,22.17a4.646,4.646,0,1,1-4.645-4.645,4.647,4.647,0,0,1,4.645,4.645" transform="translate(82.451 16.127)" fill="#2477c1"/>
    <path id="Path_584" data-name="Path 584" d="M104.708,77.753a4.646,4.646,0,1,1-4.645-4.645,4.645,4.645,0,0,1,4.645,4.645" transform="translate(87.807 67.278)" fill="#2477c1"/>
    <path id="Path_585" data-name="Path 585" d="M58.764,47.772a3.191,3.191,0,1,1-3.191-3.191,3.191,3.191,0,0,1,3.191,3.191" transform="translate(48.204 41.026)" fill="#2477c1"/>
    <path id="Path_586" data-name="Path 586" d="M98.888,22.17a4.646,4.646,0,1,1-4.645-4.645,4.647,4.647,0,0,1,4.645,4.645" transform="translate(82.451 16.127)" fill="#2477c1"/>
    <path id="Path_587" data-name="Path 587" d="M104.708,77.753a4.646,4.646,0,1,1-4.645-4.645,4.645,4.645,0,0,1,4.645,4.645" transform="translate(87.807 67.278)" fill="#2477c1"/>
    <path id="Path_588" data-name="Path 588" d="M136.3,8.559a4.646,4.646,0,1,1-4.647-4.645A4.647,4.647,0,0,1,136.3,8.559" transform="translate(116.876 3.602)" fill="#2477c1"/>
    <path id="Path_589" data-name="Path 589" d="M195.174,62.046a8.454,8.454,0,1,1-8.455-8.455,8.454,8.454,0,0,1,8.455,8.455" transform="translate(164.05 49.317)" fill="#2477c1"/>
    <path id="Path_590" data-name="Path 590" d="M165.226,4.645A4.646,4.646,0,1,1,160.581,0a4.648,4.648,0,0,1,4.645,4.645" transform="translate(143.499)" fill="#2477c1"/>
    <path id="Path_591" data-name="Path 591" d="M101.885,23.141a6.672,6.672,0,1,1-6.671-6.671,6.67,6.67,0,0,1,6.671,6.671" transform="translate(81.48 15.157)" fill="#2477c1"/>
  </g>
</svg>
