<svg width="172" height="1819" viewBox="0 0 172 1819" fill="none" xmlns="http://www.w3.org/2000/svg">
<g clip-path="url(#clip0_1329_6)">
<path fill-rule="evenodd" clip-rule="evenodd" d="M82.5655 1226.82C104.321 1247.75 115.263 1271.82 115.324 1295.74L115.401 1326.09L135.851 1326.04L135.774 1295.69C135.695 1264.88 121.541 1235.59 96.568 1211.57C74.8123 1190.65 63.8703 1166.57 63.8094 1142.66L63.7345 1113.26L43.285 1113.31L43.3598 1142.71C43.4383 1173.51 57.5922 1202.8 82.5655 1226.82Z" fill="#36BBE4"/>
<path fill-rule="evenodd" clip-rule="evenodd" d="M96.0655 1014.31C74.4167 1035.35 63.5974 1059.48 63.6583 1083.39L63.7356 1113.74L43.2861 1113.8L43.2088 1083.45C43.1303 1052.64 57.1349 1023.28 81.9855 999.13C103.634 978.094 114.454 953.963 114.393 930.048L114.319 901.136L134.769 901.084L134.842 929.996C134.921 960.802 120.916 990.165 96.0655 1014.31Z" fill="#9954E2"/>
<path fill-rule="evenodd" clip-rule="evenodd" d="M52.1742 1090.51C39.6658 1090.54 29.5527 1100.95 29.5853 1113.75C29.6179 1126.55 39.7839 1136.91 52.2923 1136.87C64.8002 1136.84 74.9139 1126.44 74.8813 1113.64C74.8487 1100.83 64.6822 1090.48 52.1742 1090.51Z" fill="white"/>
<path fill-rule="evenodd" clip-rule="evenodd" d="M52.1472 1100.04C44.8059 1100.05 38.8705 1106.18 38.8897 1113.73C38.9089 1121.27 44.8754 1127.37 52.2168 1127.35C59.5576 1127.33 65.4934 1121.2 65.4742 1113.66C65.455 1106.12 59.488 1100.02 52.1472 1100.04Z" fill="#9954E2"/>
<path fill-rule="evenodd" clip-rule="evenodd" d="M81.4803 800.852C103.236 821.778 114.178 845.854 114.239 869.769L114.316 900.119L134.766 900.067L134.688 869.716C134.61 838.91 120.456 809.62 95.4828 785.6C73.7271 764.674 62.785 740.598 62.7241 716.683L62.6505 687.771L42.201 687.823L42.2746 716.735C42.3531 747.541 56.507 776.832 81.4803 800.852Z" fill="#FBC203"/>
<path fill-rule="evenodd" clip-rule="evenodd" d="M125.759 876.828C138.268 876.796 148.908 887.148 148.941 899.95C148.973 912.753 138.386 923.158 125.877 923.19C113.369 923.222 103.203 912.869 103.17 900.067C103.138 887.264 113.251 876.86 125.759 876.828Z" fill="white"/>
<path fill-rule="evenodd" clip-rule="evenodd" d="M125.836 886.352C133.177 886.333 139.144 892.433 139.163 899.975C139.182 907.518 133.247 913.648 125.905 913.667C118.564 913.686 112.597 907.586 112.578 900.043C112.559 892.5 118.495 886.37 125.836 886.352Z" fill="#FBC203"/>
<path fill-rule="evenodd" clip-rule="evenodd" d="M94.9801 587.472C73.3313 608.508 62.512 632.64 62.5729 656.555L62.6502 686.905L42.2007 686.957L42.1234 656.607C42.0449 625.801 56.049 596.438 80.8995 572.291C102.548 551.256 113.368 527.125 113.307 503.209L113.233 474.296L133.683 474.244L133.756 503.157C133.835 533.963 119.83 563.326 94.9801 587.472Z" fill="#FD2F7B"/>
<path fill-rule="evenodd" clip-rule="evenodd" d="M51.0883 663.674C38.5804 663.706 28.4667 674.11 28.4993 686.912C28.5319 699.715 38.6985 710.068 51.2064 710.037C63.7148 710.005 73.828 699.6 73.7954 686.797C73.7628 673.995 63.5968 663.642 51.0883 663.674Z" fill="white"/>
<path fill-rule="evenodd" clip-rule="evenodd" d="M51.0612 673.197C43.7204 673.216 37.7845 679.346 37.8038 686.889C37.823 694.432 43.79 700.531 51.1308 700.512C58.4721 700.493 64.4075 694.364 64.3883 686.821C64.3691 679.278 58.4026 673.179 51.0612 673.197Z" fill="#FD2F7B"/>
<path fill-rule="evenodd" clip-rule="evenodd" d="M80.3934 374.041C102.149 394.967 113.091 419.043 113.152 442.958L113.229 473.308L133.679 473.256L133.602 442.906C133.523 412.1 119.369 382.809 94.3959 358.789C72.6402 337.864 61.6981 313.788 61.636 289.387L61.5636 260.96L41.1141 261.012L41.1865 289.439C41.2662 320.731 55.4201 350.022 80.3934 374.041Z" fill="#36BBE4"/>
<path fill-rule="evenodd" clip-rule="evenodd" d="M124.672 450.018C137.181 449.986 147.821 460.338 147.854 473.14C147.887 485.943 137.299 496.349 124.79 496.38C112.282 496.412 102.116 486.059 102.083 473.257C102.051 460.455 112.164 450.05 124.672 450.018Z" fill="white"/>
<path fill-rule="evenodd" clip-rule="evenodd" d="M124.749 459.541C132.09 459.523 138.057 465.622 138.076 473.165C138.095 480.708 132.16 486.838 124.818 486.857C117.478 486.875 111.51 480.776 111.491 473.233C111.472 465.69 117.408 459.56 124.749 459.541Z" fill="#36BBE4"/>
<path fill-rule="evenodd" clip-rule="evenodd" d="M93.8917 160.508C72.2428 181.544 61.4236 205.676 61.4845 229.591L61.5618 259.94L41.1122 259.993L41.0349 229.643C40.9565 198.837 54.9611 169.474 79.8116 145.327C101.46 124.292 112.279 100.16 112.218 76.2449L112.145 47.3328L132.595 47.2808L132.668 76.1929C132.747 106.999 118.742 136.361 93.8917 160.508Z" fill="#9954E2"/>
<path fill-rule="evenodd" clip-rule="evenodd" d="M49.9994 236.709C37.491 236.741 27.3779 247.145 27.4105 259.948C27.4431 272.751 37.6091 283.103 50.1175 283.071C62.6254 283.039 72.7391 272.635 72.7065 259.832C72.6739 247.03 62.5074 236.677 49.9994 236.709Z" fill="white"/>
<path fill-rule="evenodd" clip-rule="evenodd" d="M49.9724 246.232C42.6311 246.251 36.6957 252.381 36.7149 259.924C36.7341 267.466 42.7006 273.566 50.042 273.547C57.3828 273.529 63.3186 267.399 63.2994 259.856C63.2802 252.313 57.3132 246.213 49.9724 246.232Z" fill="#9954E2"/>
<path fill-rule="evenodd" clip-rule="evenodd" d="M124.647 8.05768C112.138 8.08954 102.025 18.4942 102.058 31.2966C102.091 44.0995 112.257 54.4519 124.765 54.4201C137.273 54.3882 147.387 43.9841 147.354 31.1812C147.321 18.3788 137.155 8.02583 124.647 8.05768Z" fill="white"/>
<path fill-rule="evenodd" clip-rule="evenodd" d="M124.292 17.0339C116.95 17.0526 111.015 23.1825 111.034 30.7253C111.053 38.268 117.02 44.3677 124.361 44.349C131.702 44.3303 137.638 38.2003 137.619 30.6576C137.6 23.1148 131.633 17.0152 124.292 17.0339Z" fill="#9954E2"/>
</g>
<g clip-path="url(#clip1_1329_6)">
<path fill-rule="evenodd" clip-rule="evenodd" d="M80.566 1675.54C102.268 1696.52 113.149 1720.62 113.149 1744.54L113.149 1774.89H133.599L133.599 1744.54C133.599 1713.73 119.52 1684.4 94.6078 1660.32C72.9055 1639.34 62.0248 1615.24 62.0248 1591.32V1562.41H41.5752V1591.32C41.5752 1622.13 55.6545 1651.45 80.566 1675.54Z" fill="#FD2F7B"/>
<path fill-rule="evenodd" clip-rule="evenodd" d="M124.653 1751.63C137.161 1751.63 147.301 1762 147.301 1774.81C147.301 1787.61 137.161 1797.99 124.653 1797.99C112.144 1797.99 102.005 1787.61 102.005 1774.81C102.005 1762 112.144 1751.63 124.653 1751.63Z" fill="white"/>
<path fill-rule="evenodd" clip-rule="evenodd" d="M124.704 1761.15C132.045 1761.15 137.997 1767.26 137.997 1774.81C137.997 1782.35 132.045 1788.46 124.704 1788.46C117.363 1788.46 111.412 1782.35 111.412 1774.81C111.412 1767.26 117.363 1761.15 124.704 1761.15Z" fill="#FD2F7B"/>
<path fill-rule="evenodd" clip-rule="evenodd" d="M94.6098 1462.07C72.9074 1483.05 62.0267 1507.15 62.0267 1531.07V1561.42H41.5771V1531.07C41.5771 1500.26 55.6564 1470.93 80.5684 1446.85C102.271 1425.87 113.151 1401.77 113.151 1377.37V1348.94H133.601V1377.37C133.601 1408.66 119.522 1437.99 94.6098 1462.07Z" fill="#36BBE4"/>
<path fill-rule="evenodd" clip-rule="evenodd" d="M50.5242 1538.16C38.0157 1538.16 27.4014 1548.54 27.4014 1561.34C27.4014 1574.14 38.0157 1584.52 50.5242 1584.52C63.0321 1584.52 73.1723 1574.14 73.1723 1561.34C73.1723 1548.54 63.0321 1538.16 50.5242 1538.16Z" fill="white"/>
<path fill-rule="evenodd" clip-rule="evenodd" d="M50.473 1547.68C43.1316 1547.68 37.1807 1553.8 37.1807 1561.34C37.1807 1568.88 43.1316 1575 50.473 1575C57.8138 1575 63.7653 1568.88 63.7653 1561.34C63.7653 1553.8 57.8138 1547.68 50.473 1547.68Z" fill="#36BBE4"/>
<path fill-rule="evenodd" clip-rule="evenodd" d="M124.654 1324.66C137.162 1324.66 147.302 1335.04 147.302 1347.84C147.302 1360.64 137.162 1371.02 124.654 1371.02C112.146 1371.02 102.006 1360.64 102.006 1347.84C102.006 1335.04 112.146 1324.66 124.654 1324.66Z" fill="white"/>
<path fill-rule="evenodd" clip-rule="evenodd" d="M124.705 1334.18C132.047 1334.18 137.998 1340.3 137.998 1347.84C137.998 1355.38 132.047 1361.5 124.705 1361.5C117.365 1361.5 111.413 1355.38 111.413 1347.84C111.413 1340.3 117.365 1334.18 124.705 1334.18Z" fill="#9954E2"/>
<path fill-rule="evenodd" clip-rule="evenodd" d="M124.036 1788.44C116.695 1788.44 110.744 1782.33 110.744 1774.78C110.744 1767.24 116.695 1761.13 124.036 1761.13C131.377 1761.13 137.329 1767.24 137.329 1774.78C137.329 1782.33 131.377 1788.44 124.036 1788.44Z" fill="#FBC203"/>
<path fill-rule="evenodd" clip-rule="evenodd" d="M50.0365 1575.44C57.3773 1575.44 63.3288 1569.33 63.3288 1561.78C63.3288 1554.24 57.3773 1548.13 50.0365 1548.13C42.6951 1548.13 36.7441 1554.24 36.7441 1561.78C36.7441 1569.33 42.6951 1575.44 50.0365 1575.44Z" fill="#FD2F7B"/>
</g>
<defs>
<clipPath id="clip0_1329_6">
<rect width="1317.11" height="125.418" fill="white" transform="matrix(0.00130278 1.00064 -0.997537 0.00497002 147.704 8.25269)"/>
</clipPath>
<clipPath id="clip1_1329_6">
<rect width="505.553" height="125" fill="white" transform="matrix(0 1 1 0 23.001 1313.45)"/>
</clipPath>
</defs>
</svg>
