<svg width="1279" height="240" viewBox="0 0 1279 240" fill="none" xmlns="http://www.w3.org/2000/svg">
<path fill-rule="evenodd" clip-rule="evenodd" d="M1179.41 126.866C1200.39 105.163 1224.5 94.2826 1248.41 94.2826H1278.76V73.833H1248.41C1217.6 73.833 1188.28 87.9123 1164.19 112.824C1143.21 134.527 1119.11 145.407 1095.19 145.407H1065.8V165.857H1095.19C1126 165.857 1155.33 151.778 1179.41 126.866Z" fill="#36BBE4"/>
<path fill-rule="evenodd" clip-rule="evenodd" d="M966.934 112.824C987.916 134.527 1012.02 145.407 1035.93 145.407H1066.28V165.857H1035.93C1005.13 165.857 975.801 151.778 951.717 126.866C930.737 105.163 906.633 94.2826 882.718 94.2826H853.806V73.833H882.718C913.525 73.833 942.851 87.9123 966.934 112.824Z" fill="#9954E2"/>
<path fill-rule="evenodd" clip-rule="evenodd" d="M1043.02 156.91C1043.02 169.418 1053.4 179.558 1066.2 179.558C1079.01 179.558 1089.39 169.418 1089.39 156.91C1089.39 144.402 1079.01 134.262 1066.2 134.262C1053.4 134.262 1043.02 144.402 1043.02 156.91Z" fill="white"/>
<path fill-rule="evenodd" clip-rule="evenodd" d="M1052.55 156.961C1052.55 164.302 1058.66 170.253 1066.2 170.253C1073.75 170.253 1079.86 164.302 1079.86 156.961C1079.86 149.62 1073.75 143.669 1066.2 143.669C1058.66 143.669 1052.55 149.62 1052.55 156.961Z" fill="#9954E2"/>
<path fill-rule="evenodd" clip-rule="evenodd" d="M753.439 126.866C774.419 105.163 798.523 94.2826 822.438 94.2826H852.789V73.833H822.438C791.632 73.833 762.305 87.9123 738.222 112.824C717.241 134.527 693.137 145.407 669.222 145.407H640.31V165.857H669.222C700.028 165.857 729.355 151.778 753.439 126.866Z" fill="#FBC203"/>
<path fill-rule="evenodd" clip-rule="evenodd" d="M829.527 82.78C829.527 70.2716 839.906 59.6572 852.709 59.6572C865.511 59.6572 875.889 70.2716 875.889 82.78C875.889 95.288 865.511 105.428 852.709 105.428C839.906 105.428 829.527 95.288 829.527 82.78Z" fill="white"/>
<path fill-rule="evenodd" clip-rule="evenodd" d="M839.051 82.7288C839.051 75.3875 845.166 69.4365 852.708 69.4365C860.251 69.4365 866.366 75.3875 866.366 82.7288C866.366 90.0697 860.251 96.0211 852.708 96.0211C845.166 96.0211 839.051 90.0697 839.051 82.7288Z" fill="#FBC203"/>
<path fill-rule="evenodd" clip-rule="evenodd" d="M540.094 112.822C561.075 134.525 585.179 145.405 609.094 145.405H639.444V165.855H609.094C578.287 165.855 548.961 151.776 524.877 126.864C503.897 105.162 479.793 94.2811 455.878 94.2811H426.965V73.8315H455.878C486.684 73.8315 516.011 87.9108 540.094 112.822Z" fill="#FD2F7B"/>
<path fill-rule="evenodd" clip-rule="evenodd" d="M616.184 156.908C616.184 169.416 626.562 179.556 639.364 179.556C652.167 179.556 662.546 169.416 662.546 156.908C662.546 144.4 652.167 134.26 639.364 134.26C626.562 134.26 616.184 144.4 616.184 156.908Z" fill="white"/>
<path fill-rule="evenodd" clip-rule="evenodd" d="M625.707 156.96C625.707 164.3 631.822 170.252 639.365 170.252C646.907 170.252 653.022 164.3 653.022 156.96C653.022 149.618 646.907 143.667 639.365 143.667C631.822 143.667 625.707 149.618 625.707 156.96Z" fill="#FD2F7B"/>
<path fill-rule="evenodd" clip-rule="evenodd" d="M326.627 126.866C347.608 105.163 371.711 94.2826 395.626 94.2826H425.977V73.833H395.626C364.82 73.833 335.493 87.9123 311.41 112.824C290.429 134.527 266.326 145.407 241.925 145.407H213.498V165.857H241.925C273.217 165.857 302.544 151.778 326.627 126.866Z" fill="#36BBE4"/>
<path fill-rule="evenodd" clip-rule="evenodd" d="M402.716 82.78C402.716 70.2716 413.095 59.6572 425.897 59.6572C438.699 59.6572 449.078 70.2716 449.078 82.78C449.078 95.288 438.699 105.428 425.897 105.428C413.095 105.428 402.716 95.288 402.716 82.78Z" fill="white"/>
<path fill-rule="evenodd" clip-rule="evenodd" d="M412.239 82.7288C412.239 75.3875 418.354 69.4365 425.897 69.4365C433.44 69.4365 439.554 75.3875 439.554 82.7288C439.554 90.0697 433.44 96.0211 425.897 96.0211C418.354 96.0211 412.239 90.0697 412.239 82.7288Z" fill="#36BBE4"/>
<path fill-rule="evenodd" clip-rule="evenodd" d="M113.129 112.824C134.109 134.527 158.213 145.407 182.129 145.407H212.478V165.857H182.129C151.322 165.857 121.995 151.778 97.9118 126.866C76.9317 105.163 52.8277 94.2831 28.9122 94.2831H0V73.833H28.9122C59.7189 73.833 89.0452 87.9123 113.129 112.824Z" fill="#9954E2"/>
<path fill-rule="evenodd" clip-rule="evenodd" d="M189.217 156.91C189.217 169.418 199.596 179.558 212.398 179.558C225.201 179.558 235.579 169.418 235.579 156.91C235.579 144.402 225.201 134.262 212.398 134.262C199.596 134.262 189.217 144.402 189.217 156.91Z" fill="white"/>
<path fill-rule="evenodd" clip-rule="evenodd" d="M198.74 156.961C198.74 164.302 204.855 170.253 212.398 170.253C219.941 170.253 226.055 164.302 226.055 156.961C226.055 149.62 219.941 143.669 212.398 143.669C204.855 143.669 198.74 149.62 198.74 156.961Z" fill="#9954E2"/>
</svg>
