<svg width="1279" height="240" viewBox="0 0 1279 240" fill="none" xmlns="http://www.w3.org/2000/svg">
<path fill-rule="evenodd" clip-rule="evenodd" d="M312.066 112.824C291.084 134.527 266.981 145.407 243.066 145.407H212.716V165.857H243.066C273.872 165.857 303.199 151.778 327.283 126.866C348.263 105.163 372.367 94.2826 396.282 94.2826H425.194V73.833H396.282C365.475 73.833 336.149 87.9123 312.066 112.824Z" fill="#9954E2"/>
<path fill-rule="evenodd" clip-rule="evenodd" d="M235.977 156.91C235.977 169.418 225.598 179.558 212.795 179.558C199.992 179.558 189.614 169.418 189.614 156.91C189.614 144.402 199.992 134.262 212.795 134.262C225.598 134.262 235.977 144.402 235.977 156.91Z" fill="white"/>
<path fill-rule="evenodd" clip-rule="evenodd" d="M226.453 156.961C226.453 164.302 220.338 170.253 212.796 170.253C205.253 170.253 199.138 164.302 199.138 156.961C199.138 149.62 205.253 143.669 212.796 143.669C220.338 143.669 226.453 149.62 226.453 156.961Z" fill="#9954E2"/>
<path fill-rule="evenodd" clip-rule="evenodd" d="M199 157.292C199 149.951 205.115 144 212.658 144C220.2 144 226.315 149.951 226.315 157.292C226.315 164.633 220.2 170.585 212.658 170.585C205.115 170.585 199 164.633 199 157.292Z" fill="#36BBE4"/>
<path fill-rule="evenodd" clip-rule="evenodd" d="M525.561 126.866C504.581 105.163 480.477 94.2826 456.562 94.2826L426.211 94.2826V73.833L456.562 73.833C487.368 73.833 516.695 87.9123 540.778 112.824C561.759 134.527 585.863 145.407 609.778 145.407H638.69V165.857H609.778C578.972 165.857 549.645 151.778 525.561 126.866Z" fill="#FBC203"/>
<path fill-rule="evenodd" clip-rule="evenodd" d="M449.473 82.78C449.473 70.2716 439.094 59.6572 426.291 59.6572C413.489 59.6572 403.111 70.2716 403.111 82.78C403.111 95.288 413.489 105.428 426.291 105.428C439.094 105.428 449.473 95.288 449.473 82.78Z" fill="white"/>
<path fill-rule="evenodd" clip-rule="evenodd" d="M439.949 82.7288C439.949 75.3875 433.834 69.4365 426.292 69.4365C418.749 69.4365 412.634 75.3875 412.634 82.7288C412.634 90.0697 418.749 96.0211 426.292 96.0211C433.834 96.0211 439.949 90.0697 439.949 82.7288Z" fill="#FBC203"/>
<path fill-rule="evenodd" clip-rule="evenodd" d="M413 82.2923C413 89.6337 419.115 95.5846 426.658 95.5846C434.2 95.5846 440.315 89.6337 440.315 82.2923C440.315 74.9515 434.2 69 426.658 69C419.115 69 413 74.9515 413 82.2923Z" fill="#9954E2"/>
<path fill-rule="evenodd" clip-rule="evenodd" d="M738.906 112.822C717.925 134.524 693.821 145.405 669.906 145.405H639.556V165.855H669.906C700.713 165.855 730.039 151.776 754.123 126.864C775.103 105.162 799.207 94.2809 823.122 94.2809H852.035V73.8313H823.122C792.316 73.8313 762.989 87.9106 738.906 112.822Z" fill="#FD2F7B"/>
<path fill-rule="evenodd" clip-rule="evenodd" d="M662.816 156.908C662.816 169.416 652.438 179.556 639.636 179.556C626.833 179.556 616.454 169.416 616.454 156.908C616.454 144.4 626.833 134.26 639.636 134.26C652.438 134.26 662.816 144.4 662.816 156.908Z" fill="white"/>
<path fill-rule="evenodd" clip-rule="evenodd" d="M653.293 156.96C653.293 164.3 647.178 170.252 639.635 170.252C632.093 170.252 625.978 164.3 625.978 156.96C625.978 149.618 632.093 143.667 639.635 143.667C647.178 143.667 653.293 149.618 653.293 156.96Z" fill="#FD2F7B"/>
<path fill-rule="evenodd" clip-rule="evenodd" d="M952.373 126.866C931.392 105.163 907.289 94.2826 883.374 94.2826L853.023 94.2826V73.833L883.374 73.833C914.18 73.833 943.507 87.9123 967.59 112.824C988.571 134.527 1012.67 145.407 1037.08 145.407H1065.5V165.857H1037.08C1005.78 165.857 976.456 151.778 952.373 126.866Z" fill="#36BBE4"/>
<path fill-rule="evenodd" clip-rule="evenodd" d="M876.284 82.78C876.284 70.2716 865.905 59.6572 853.103 59.6572C840.301 59.6572 829.922 70.2716 829.922 82.78C829.922 95.288 840.301 105.428 853.103 105.428C865.905 105.428 876.284 95.288 876.284 82.78Z" fill="white"/>
<path fill-rule="evenodd" clip-rule="evenodd" d="M866.761 82.7288C866.761 75.3875 860.646 69.4365 853.103 69.4365C845.56 69.4365 839.446 75.3875 839.446 82.7288C839.446 90.0697 845.56 96.0211 853.103 96.0211C860.646 96.0211 866.761 90.0697 866.761 82.7288Z" fill="#36BBE4"/>
<path fill-rule="evenodd" clip-rule="evenodd" d="M1089.78 156.91C1089.78 169.418 1079.4 179.558 1066.6 179.558C1053.8 179.558 1043.42 169.418 1043.42 156.91C1043.42 144.402 1053.8 134.262 1066.6 134.262C1079.4 134.262 1089.78 144.402 1089.78 156.91Z" fill="white"/>
<path fill-rule="evenodd" clip-rule="evenodd" d="M1080.26 156.961C1080.26 164.302 1074.14 170.253 1066.6 170.253C1059.06 170.253 1052.94 164.302 1052.94 156.961C1052.94 149.62 1059.06 143.669 1066.6 143.669C1074.14 143.669 1080.26 149.62 1080.26 156.961Z" fill="#9954E2"/>
<path fill-rule="evenodd" clip-rule="evenodd" d="M626 156.292C626 148.951 632.115 143 639.658 143C647.2 143 653.315 148.951 653.315 156.292C653.315 163.633 647.2 169.585 639.658 169.585C632.115 169.585 626 163.633 626 156.292Z" fill="#FBC203"/>
<path fill-rule="evenodd" clip-rule="evenodd" d="M839 82.2923C839 89.6332 845.115 95.5846 852.658 95.5846C860.2 95.5846 866.315 89.6332 866.315 82.2923C866.315 74.951 860.2 69 852.658 69C845.115 69 839 74.951 839 82.2923Z" fill="#FD2F7B"/>
</svg>
