<?xml version="1.0" encoding="UTF-8"?>
<svg id="Layer_2" data-name="Layer 2" xmlns="http://www.w3.org/2000/svg" xmlns:xlink="http://www.w3.org/1999/xlink" viewBox="0 0 598.62 499.33">
  <defs>
    <style>
      .cls-1 {
        stroke-width: 3px;
      }

      .cls-1, .cls-2, .cls-3, .cls-4, .cls-5, .cls-6, .cls-7, .cls-8, .cls-9, .cls-10, .cls-11, .cls-12 {
        stroke-miterlimit: 10;
      }

      .cls-1, .cls-13, .cls-3, .cls-4, .cls-5, .cls-14, .cls-8, .cls-10, .cls-11, .cls-12 {
        fill: none;
      }

      .cls-1, .cls-5, .cls-6, .cls-15, .cls-11, .cls-12 {
        stroke: #5461fa;
      }

      .cls-2, .cls-3, .cls-7, .cls-8 {
        stroke: #b799ff;
      }

      .cls-2, .cls-6, .cls-7, .cls-9, .cls-15, .cls-16 {
        fill: #fff;
      }

      .cls-2, .cls-8, .cls-12 {
        stroke-width: 2px;
      }

      .cls-17 {
        fill: url(#linear-gradient-12);
      }

      .cls-17, .cls-18, .cls-19, .cls-20, .cls-21, .cls-22, .cls-23, .cls-24, .cls-25, .cls-26, .cls-27, .cls-28, .cls-29, .cls-30, .cls-31, .cls-16, .cls-32, .cls-33, .cls-34, .cls-35, .cls-36, .cls-37, .cls-38, .cls-39, .cls-40, .cls-41, .cls-42 {
        stroke-width: 0px;
      }

      .cls-18 {
        fill: url(#linear-gradient-17);
      }

      .cls-19 {
        fill: url(#linear-gradient-19);
      }

      .cls-20 {
        fill: url(#linear-gradient);
      }

      .cls-13 {
        stroke: #ff7b7b;
      }

      .cls-13, .cls-14, .cls-15 {
        stroke-linecap: round;
        stroke-linejoin: round;
      }

      .cls-21 {
        fill: url(#linear-gradient-21);
      }

      .cls-22 {
        fill: url(#linear-gradient-6);
      }

      .cls-4, .cls-9 {
        stroke: #201046;
      }

      .cls-23 {
        fill: url(#linear-gradient-15);
      }

      .cls-24 {
        fill: url(#linear-gradient-11);
      }

      .cls-14 {
        stroke: #fff;
      }

      .cls-25 {
        fill: url(#linear-gradient-5);
      }

      .cls-10 {
        stroke: #ff6ea9;
      }

      .cls-26 {
        fill: #201046;
      }

      .cls-27 {
        fill: #b799ff;
      }

      .cls-28 {
        fill: url(#linear-gradient-13);
      }

      .cls-29 {
        fill: url(#linear-gradient-23);
      }

      .cls-11 {
        stroke-dasharray: 0 5;
      }

      .cls-30 {
        fill: url(#linear-gradient-16);
      }

      .cls-31 {
        fill: url(#linear-gradient-22);
      }

      .cls-32 {
        fill: url(#linear-gradient-20);
      }

      .cls-33 {
        fill: url(#linear-gradient-14);
      }

      .cls-34 {
        fill: url(#linear-gradient-2);
      }

      .cls-35 {
        fill: url(#linear-gradient-7);
      }

      .cls-36 {
        fill: url(#linear-gradient-3);
      }

      .cls-37 {
        fill: url(#linear-gradient-9);
      }

      .cls-38 {
        fill: url(#linear-gradient-8);
      }

      .cls-39 {
        fill: url(#linear-gradient-18);
      }

      .cls-40 {
        fill: #5461fa;
      }

      .cls-41 {
        fill: url(#linear-gradient-10);
      }

      .cls-42 {
        fill: url(#linear-gradient-4);
      }
    </style>
    <linearGradient id="linear-gradient" x1="93.84" y1="135.05" x2="104.01" y2="135.05" gradientUnits="userSpaceOnUse">
      <stop offset="0" stop-color="#a0c5ff"/>
      <stop offset="1" stop-color="#b799ff"/>
    </linearGradient>
    <linearGradient id="linear-gradient-2" x1="62.51" y1="149.26" x2="72.68" y2="149.26" xlink:href="#linear-gradient"/>
    <linearGradient id="linear-gradient-3" x1="442.42" y1="480.78" x2="465.62" y2="480.78" gradientUnits="userSpaceOnUse">
      <stop offset="0" stop-color="#5461fa"/>
      <stop offset="1" stop-color="#3e2ab7"/>
    </linearGradient>
    <linearGradient id="linear-gradient-4" x1="530.87" x2="554.07" xlink:href="#linear-gradient-3"/>
    <linearGradient id="linear-gradient-5" x1="549.12" y1="415.55" x2="556.2" y2="415.55" xlink:href="#linear-gradient"/>
    <linearGradient id="linear-gradient-6" x1="440.29" y1="387.02" x2="447.37" y2="387.02" xlink:href="#linear-gradient"/>
    <linearGradient id="linear-gradient-7" x1="440.29" y1="444.07" x2="447.37" y2="444.07" xlink:href="#linear-gradient"/>
    <linearGradient id="linear-gradient-8" x1="520.24" y1="415.55" x2="536.05" y2="415.55" gradientTransform="translate(223.68 -183.55) rotate(24.86)" xlink:href="#linear-gradient-3"/>
    <linearGradient id="linear-gradient-9" x1="430.67" y1="90.52" x2="438.62" y2="90.52" xlink:href="#linear-gradient-3"/>
    <linearGradient id="linear-gradient-10" x1="484.15" y1="90.52" x2="492.1" y2="90.52" xlink:href="#linear-gradient-3"/>
    <linearGradient id="linear-gradient-11" x1="331.38" y1="43.46" x2="375.05" y2="43.46" xlink:href="#linear-gradient"/>
    <linearGradient id="linear-gradient-12" x1="148.51" y1="50.19" x2="207.27" y2="50.19" xlink:href="#linear-gradient-3"/>
    <linearGradient id="linear-gradient-13" x1="147.58" y1="350.23" x2="208.2" y2="350.23" xlink:href="#linear-gradient"/>
    <linearGradient id="linear-gradient-14" x1="184.49" y1="365.89" x2="194.42" y2="365.89" xlink:href="#linear-gradient-3"/>
    <linearGradient id="linear-gradient-15" x1="273.38" y1="194.58" x2="300.12" y2="194.58" gradientTransform="translate(52.38 -60.68) rotate(13.28)" xlink:href="#linear-gradient-3"/>
    <linearGradient id="linear-gradient-16" x1="289.57" y1="343.79" x2="314.21" y2="343.79" xlink:href="#linear-gradient"/>
    <linearGradient id="linear-gradient-17" x1="293.38" y1="356.75" x2="318.03" y2="356.75" gradientTransform="translate(505.75 -68.35) rotate(65.79)" xlink:href="#linear-gradient"/>
    <linearGradient id="linear-gradient-18" x1="258.1" y1="371.53" x2="343.56" y2="371.53" xlink:href="#linear-gradient-3"/>
    <linearGradient id="linear-gradient-19" x1="263.27" y1="376.06" x2="268.95" y2="376.06" xlink:href="#linear-gradient"/>
    <linearGradient id="linear-gradient-20" x1="475.71" y1="174.95" x2="485.87" y2="174.95" xlink:href="#linear-gradient-3"/>
    <linearGradient id="linear-gradient-21" x1="544.89" y1="208.85" x2="598.62" y2="208.85" xlink:href="#linear-gradient"/>
    <linearGradient id="linear-gradient-22" x1="128.61" y1="172.7" x2="166.88" y2="172.7" xlink:href="#linear-gradient"/>
    <linearGradient id="linear-gradient-23" x1="150.05" y1="150.26" x2="168.39" y2="150.26" xlink:href="#linear-gradient-3"/>
  </defs>
  <g id="_11" data-name="11">
    <g>
      <path class="cls-2" d="m506.2,178.57v55.6c0,7.22-5.86,13.08-13.08,13.08h-86.5c-7.22,0-13.08-5.86-13.08-13.08v-72.11c0-7.22,5.86-13.08,13.08-13.08h86.5c7.22,0,13.08,5.86,13.08,13.08v6.46"/>
      <rect class="cls-11" x="400.25" y="157.02" width="99.22" height="82.19" rx="15.56" ry="15.56"/>
      <g>
        <rect class="cls-7" x="46.84" y="119.25" width="10.17" height="42.77"/>
        <rect class="cls-7" x="78.18" y="127.11" width="10.17" height="34.91"/>
        <rect class="cls-20" x="93.84" y="108.08" width="10.17" height="53.93"/>
        <rect class="cls-34" x="62.51" y="136.49" width="10.17" height="25.53"/>
      </g>
      <path class="cls-2" d="m144.77,225.27c-7.92-6.04-17.81-9.63-28.55-9.63-26.01,0-47.1,21.09-47.1,47.1s21.09,47.1,47.1,47.1,47.1-21.09,47.1-47.1c0-11.14-3.87-21.38-10.34-29.45"/>
      <circle class="cls-11" cx="116.22" cy="262.73" r="39.61"/>
      <path class="cls-9" d="m31.72,478.97c-2.97,5.01-8.35,13.17-4.64,15.96,3.71,2.78,31.53,2.01,31.55,0,.06-5.74-10.6-4.78-17.67-13.5-2.73-3.37-9.23-2.46-9.23-2.46Z"/>
      <path class="cls-9" d="m103.34,474.28c-4.11,4.13-11.33,10.72-8.42,14.33,2.91,3.61,30.07,9.69,30.58,7.75,1.47-5.55-9.1-7.23-13.81-17.43-1.82-3.93-8.35-4.65-8.35-4.65Z"/>
      <path class="cls-9" d="m51.79,384.41c1.12-8.53,1.68-50.97,1.68-50.97l33.8-18.41c9.8,21.01,21.93,56.1,25.24,70.17.41,1.72.68,3.12.8,4.15"/>
      <path class="cls-9" d="m113.69,395c.94,20.31,1.62,80.6,1.42,82.58-.22,2.25-12.35,5.16-17.74,0,0,0-1.64-73.87-4.3-78.58-2.66-4.72-13.89-24.25-13.89-24.25,0,0-7.86,59.5-35.25,105.71,0,0-7.86,3.55-15.49,0,0,0,15.8-62.2,21.43-86.84"/>
      <path class="cls-26" d="m52.54,231.87c.18-5.52-4.26-7.57-7.88-10.39-3.62-2.83-7.61-31.98,15.05-27.86,0,0,6.14-7.41,13.92-1.15,7.79,6.26-3.17,16.11-3.17,16.11l-17.93,23.3Z"/>
      <path class="cls-26" d="m50.82,198.12c-31.11-16.96-54.05,27.2-42.58,35.75,11.47,8.54,14.88,12.44,4.15,20.13s-10.37,26.72,2.68,27.33c13.05.61,9.15,10.13,9.15,10.13,13.42-12.44-1.8-19.29-2.93-24.16-1.95-8.42,10.25-6.71,17.65-17.32,7.4-10.61-1.67-15.74-8.38-22.45-6.71-6.71,4.76-20.62,16.23-25.74l4.03-3.66Z"/>
      <path class="cls-4" d="m1.65,269.21c-1.12-10.3,4.06-14.68,7.99-18.4,3.93-3.72,1.21-10.18-4.99-13.71-12.81-7.28,4.17-62.11,49.18-39.81"/>
      <g>
        <rect class="cls-36" x="442.42" y="475.65" width="23.2" height="10.25"/>
        <rect class="cls-42" x="530.87" y="475.65" width="23.2" height="10.25"/>
      </g>
      <path class="cls-15" d="m433.42,372v-9.26c0-5.83,4.72-10.55,10.55-10.55h108.54c5.83,0,10.55,4.72,10.55,10.55v105.63c0,5.83-4.72,10.55-10.55,10.55h-108.54c-5.83,0-10.55-4.72-10.55-10.55v-85.75"/>
      <polyline class="cls-7" points="443.83 410.53 443.83 362.36 552.66 362.36 552.66 468.74 443.83 468.74 443.83 421.79"/>
      <path class="cls-25" d="m552.66,431.88h0c-1.96,0-3.54-1.59-3.54-3.54v-25.58c0-1.96,1.59-3.54,3.54-3.54h0c1.96,0,3.54,1.59,3.54,3.54v25.58c0,1.96-1.59,3.54-3.54,3.54Z"/>
      <g>
        <path class="cls-22" d="m443.83,398.22h0c-1.96,0-3.54-1.59-3.54-3.54v-15.31c0-1.96,1.59-3.54,3.54-3.54h0c1.96,0,3.54,1.59,3.54,3.54v15.31c0,1.96-1.59,3.54-3.54,3.54Z"/>
        <path class="cls-35" d="m443.83,455.27h0c-1.96,0-3.54-1.59-3.54-3.54v-15.31c0-1.96,1.59-3.54,3.54-3.54h0c1.96,0,3.54,1.59,3.54,3.54v15.31c0,1.96-1.59,3.54-3.54,3.54Z"/>
      </g>
      <circle class="cls-15" cx="528.14" cy="415.55" r="16.09" transform="translate(-118.08 231.14) rotate(-22.27)"/>
      <g>
        <line class="cls-5" x1="528.14" y1="404.3" x2="528.14" y2="426.79"/>
        <line class="cls-5" x1="539.39" y1="415.55" x2="516.9" y2="415.55"/>
        <line class="cls-5" x1="536.09" y1="407.6" x2="520.19" y2="423.5"/>
        <line class="cls-5" x1="520.19" y1="407.6" x2="536.09" y2="423.5"/>
      </g>
      <circle class="cls-38" cx="528.14" cy="415.55" r="7.91" transform="translate(-125.77 260.59) rotate(-24.86)"/>
      <path class="cls-26" d="m499.54,217.92c-3.37-.07-9.02-3.15-5.53-9.83-2.17-3.48-1.45-9.03,5.53-8.77.6-3.91,8.72-6.5,11.43,0,3.61-3.24,10.11-.65,8.47,5.06,3.77-.01,7.84,5.53,2.9,11.7l-13.96,11.22-8.84-9.37Z"/>
      <path class="cls-9" d="m549.36,248.08c3.95,9.16,3.64,33.91,3.64,33.91,0,0-.51.78-1.4,1.75.07-.74.11-1.2.11-1.2-9.58,3.51-15.27-.18-15.27-.18,0,0-1.64,6.62-2.24,7.67s-27.09,16.69-29.56,17.81-6.81,0-12.8,0v5.32c-8.13-1.05-18.11-2.35-18.11-2.35l-4.16-21.01c6.14-23.41,10.51-42.65,19.87-47.96,9.36-5.3,25.75-8.25,25.75-8.25l13.63,3.87s9.33.83,15.66,5.1"/>
      <g>
        <g>
          <line class="cls-8" x1="286.75" y1="240.19" x2="286.75" y2="148.98"/>
          <g>
            <polyline class="cls-8" points="262.33 157.14 275.57 157.14 275.57 232.03 262.33 232.03"/>
            <polyline class="cls-8" points="311.16 232.03 297.92 232.03 297.92 157.14 311.16 157.14"/>
          </g>
          <g>
            <path class="cls-27" d="m240.4,198.46c-2.14,0-3.87-1.73-3.87-3.87s1.73-3.87,3.87-3.87,3.87,1.73,3.87,3.87-1.73,3.87-3.87,3.87Z"/>
            <g>
              <path class="cls-27" d="m333.1,198.46c-2.14,0-3.87-1.73-3.87-3.87s1.73-3.87,3.87-3.87,3.87,1.73,3.87,3.87-1.73,3.87-3.87,3.87Z"/>
              <g>
                <g>
                  <path class="cls-27" d="m249.3,222.87c-2.14,0-3.87-1.73-3.87-3.87s1.73-3.87,3.87-3.87,3.87,1.73,3.87,3.87-1.73,3.87-3.87,3.87Z"/>
                  <path class="cls-27" d="m324.19,222.87c-2.14,0-3.87-1.73-3.87-3.87s1.73-3.87,3.87-3.87,3.87,1.73,3.87,3.87-1.73,3.87-3.87,3.87Z"/>
                </g>
                <g>
                  <path class="cls-27" d="m249.3,174.04c-2.14,0-3.87-1.73-3.87-3.87s1.73-3.87,3.87-3.87,3.87,1.73,3.87,3.87-1.73,3.87-3.87,3.87Z"/>
                  <path class="cls-27" d="m324.19,174.04c-2.14,0-3.87-1.73-3.87-3.87s1.73-3.87,3.87-3.87,3.87,1.73,3.87,3.87-1.73,3.87-3.87,3.87Z"/>
                </g>
              </g>
              <g>
                <g>
                  <path class="cls-27" d="m315.03,232.03c0,2.14-1.73,3.87-3.87,3.87s-3.87-1.73-3.87-3.87,1.73-3.87,3.87-3.87,3.87,1.73,3.87,3.87Z"/>
                  <path class="cls-27" d="m315.03,157.14c0,2.14-1.73,3.87-3.87,3.87s-3.87-1.73-3.87-3.87,1.73-3.87,3.87-3.87,3.87,1.73,3.87,3.87Z"/>
                </g>
                <g>
                  <path class="cls-27" d="m266.21,232.03c0,2.14-1.73,3.87-3.87,3.87s-3.87-1.73-3.87-3.87,1.73-3.87,3.87-3.87,3.87,1.73,3.87,3.87Z"/>
                  <path class="cls-27" d="m266.21,157.14c0,2.14-1.73,3.87-3.87,3.87s-3.87-1.73-3.87-3.87,1.73-3.87,3.87-3.87,3.87,1.73,3.87,3.87Z"/>
                </g>
              </g>
              <g>
                <path class="cls-27" d="m290.62,148.23c0,2.14-1.73,3.87-3.87,3.87s-3.87-1.73-3.87-3.87,1.73-3.87,3.87-3.87,3.87,1.73,3.87,3.87Z"/>
                <path class="cls-27" d="m290.62,240.93c0,2.14-1.73,3.87-3.87,3.87s-3.87-1.73-3.87-3.87,1.73-3.87,3.87-3.87,3.87,1.73,3.87,3.87Z"/>
              </g>
            </g>
          </g>
        </g>
        <line class="cls-8" x1="241.14" y1="194.58" x2="332.35" y2="194.58"/>
        <g>
          <polyline class="cls-8" points="324.19 170.17 324.19 183.41 249.3 183.41 249.3 170.17"/>
          <polyline class="cls-8" points="249.3 219 249.3 205.76 324.19 205.76 324.19 219"/>
        </g>
      </g>
      <rect class="cls-6" x="260.69" y="168.52" width="52.12" height="52.12" rx="6.39" ry="6.39"/>
      <rect class="cls-7" x="270.74" y="178.57" width="32.02" height="32.02"/>
      <circle class="cls-15" cx="353.22" cy="43.46" r="40.96" transform="translate(231.13 377.74) rotate(-76.95)"/>
      <g>
        <path class="cls-15" d="m465.59,99.22c4.13,4.21,6.51,6.57,9,4.73,2.44-1.81-1.93-7.35-5.84-9.52-2.88-1.6-6,1.89-3.16,4.78Z"/>
        <path class="cls-15" d="m461.35,102.8c3.93,4.01,6.19,6.25,8.56,4.5,2.32-1.72-1.83-6.99-5.55-9.05-2.74-1.52-5.71,1.8-3.01,4.55Z"/>
        <path class="cls-15" d="m457.3,106.31c3.93,4.01,6.19,6.25,8.56,4.5,2.32-1.72-1.83-6.99-5.55-9.05-2.74-1.52-5.71,1.8-3.01,4.55Z"/>
        <path class="cls-13" d="m470.4,97.3c4.13,4.21,6.51,6.57,9,4.73,2.44-1.81-1.93-7.35-5.84-9.52-2.88-1.6-6,1.89-3.16,4.78Z"/>
        <path class="cls-15" d="m486.09,80.81v21.15s-13.58,0-18.06.73c-4.47.73-6.83,6.99-8.7,9.27s-6.91.16-5.29-2.44c-.95.66-4.63-1.25-3.01-4.31-2.53,1.47-6.34-1.77-4.55-4.52h-1.42c-1.29-.33-2.21-1.61-1.43-3.83,1.47-4.17,10.74-10.66,10.74-10.66,5.19,4.5,13.47,3.69,5.56-4.69,2.73-.94,26.16-.7,26.16-.7Z"/>
        <path class="cls-15" d="m454.37,86.2s-9.27,6.49-10.74,10.66c-.78,2.22.14,3.5,1.43,3.83h-11.26v-20.33s21.63-3.05,23.65-1.24c.96.86,1.78,1.65,2.47,2.39h0c7.91,8.38-.37,9.19-5.56,4.69Z"/>
        <path class="cls-15" d="m446.48,100.69s3.12-3.54,4.38-4.42"/>
        <path class="cls-15" d="m451.03,105.21c.02-.45,3.86-4.52,3.86-4.52"/>
        <line class="cls-15" x1="454.04" y1="109.52" x2="456.59" y2="107.03"/>
        <rect class="cls-37" x="430.67" y="77.61" width="7.95" height="25.82" rx="3.5" ry="3.5"/>
        <rect class="cls-41" x="484.15" y="77.61" width="7.95" height="25.82" rx="3.5" ry="3.5"/>
      </g>
      <path class="cls-24" d="m374.94,26.43s-14.54.24-21.53-8.26c-.06-.08-.13-.16-.19-.24-.06.08-.13.16-.19.24-6.99,8.5-21.53,8.26-21.53,8.26-1.18,30.14,7.51,36.42,21.53,42.47.06.03.13.06.19.08.06-.03.13-.06.19-.08,14.03-6.06,22.71-12.33,21.53-42.47Z"/>
      <path class="cls-16" d="m361.46,38.66v-2.39c0-4.46-3.63-8.1-8.1-8.1h-.3c-4.47,0-8.11,3.64-8.11,8.1v2.39c-1.22.68-2.04,1.95-2.04,3.45v10.68c0,2.18,1.77,3.95,3.95,3.95h12.69c2.18,0,3.95-1.77,3.95-3.95v-10.68c0-1.5-.84-2.77-2.05-3.45Zm-7.13,8.51v4.52c0,.61-.5,1.12-1.12,1.12s-1.12-.5-1.12-1.12v-4.52c-.81-.41-1.38-1.24-1.38-2.22,0-1.38,1.12-2.5,2.49-2.5s2.49,1.12,2.49,2.5c0,.97-.56,1.81-1.38,2.22Zm3.53-9.02h-9.3v-1.88c0-2.48,2.03-4.49,4.5-4.49h.3c2.48,0,4.49,2.02,4.49,4.49v1.88Z"/>
      <path class="cls-2" d="m221.71,99.38c8.59,0,15.56-6.97,15.56-15.56V16.56c0-8.59-6.97-15.56-15.56-15.56h-87.65c-8.59,0-15.56,6.97-15.56,15.56v67.26c0,8.59,6.97,15.56,15.56,15.56h87.65Z"/>
      <rect class="cls-11" x="128.28" y="9.1" width="99.22" height="82.19" rx="15.56" ry="15.56"/>
      <path class="cls-17" d="m207.27,43.41l-29.38-20.67-29.38,20.67h10.38v25.21h-6.87l-1.78,9.03h55.3l-1.78-9.03h-6.87v-25.21h10.38Zm-32.76,25.21h-8.86v-25.21h8.86v25.21Zm15.62,0h-8.86v-25.21h8.86v25.21Z"/>
      <polyline class="cls-12" points="113.33 162.02 37.4 162.02 37.4 104.06"/>
      <path class="cls-9" d="m62.7,239.47c-2.3-5.73.84-11.17.84-11.17,6.42-.21,8.66-10.42,8.66-10.42l3.17-.94c-4.15-6.37-2.12-19.5-9.47-18.79.57,7.55-5.38,10.22-5.38,10.22.85,2-.47,5.36-.47,5.36-6.33-12.27-14.29-.23-5.19,4.15-1.15,10.39-5.21,18.52-5.21,18.52,3.28,2.03,13.06,3.07,13.06,3.07Z"/>
      <path class="cls-26" d="m70.07,210.02c0-.8-.42-1.44-.95-1.44s-.95.65-.95,1.44.42,1.44.95,1.44.95-.65.95-1.44Z"/>
      <g>
        <path class="cls-4" d="m53.83,211.02c1.61-.62,4.11,1.36,2.92,4.85"/>
        <path class="cls-4" d="m66.46,207.17c.26-1.56,2.01-2.45,3.01-1.6"/>
        <path class="cls-4" d="m57.45,221.33c.72,2.69,2.46,6.58,6.09,6.97"/>
        <path class="cls-4" d="m66.63,220.11c.46.76,1.45,1.37,2.49,1.37"/>
      </g>
      <path class="cls-9" d="m76.44,253.24c-9.06-4.22-10.43-9.56-13.74-13.77-4.55-4.58-13.06-3.07-13.06-3.07-6.57,8.85-9.55,16.57-10.42,23.44l-.21,6.6c.41,6.71,2.66,12.58,5.02,17.96,5.34,12.17,6.58,37.74,6.33,42.95-.25,5.21,1.12,9.93,1.12,9.93,27.43-3.85,41.59-14.52,41.59-14.52,0,0-9.81-23.46-12.66-37.74-2.86-14.28,5.09-27.56-3.97-31.78Z"/>
      <path class="cls-16" d="m134.05,291.75c3.6-7.37,0-12.34,0-12.34-42.15,4.63-65.11-17.65-70.51-23.65l-8.09,16.28c24.63,28.96,78.6,19.71,78.6,19.71Z"/>
      <path class="cls-4" d="m52.97,271.04c24.63,28.96,78.6,19.71,78.6,19.71,3.6-7.37,0-12.34,0-12.34-42.15,4.63-65.11-17.65-70.51-23.65"/>
      <path class="cls-9" d="m146.89,281.05c2.56-2.01,5.22-7.69,2.75-6.58-2.47,1.1-12.81,5.67-17.02,6.58,0,0-4.51,6.15-1.43,8.14,3.07,1.99,17.82,4.5,25.73,2.56,3.62-.89,3.81-3.36,1.76-3.36,4.9-2.33,4.59-4.78,2.22-4.42,2.93-1.83,1.85-3.83,0-3.39-3.18.77-16.56,2.47-14,.46Z"/>
      <path class="cls-10" d="m152.98,285.6c.17,0,5.6-.64,8.21-1.83"/>
      <path class="cls-10" d="m152.98,289.07c.06,0,3.07.06,5.69-.68"/>
      <rect class="cls-28" x="147.58" y="346.29" width="60.62" height="7.88"/>
      <g>
        <line class="cls-3" x1="157.46" y1="360.21" x2="175.05" y2="360.21"/>
        <line class="cls-3" x1="157.46" y1="364.13" x2="175.05" y2="364.13"/>
        <line class="cls-3" x1="157.46" y1="369.99" x2="165.31" y2="369.99"/>
      </g>
      <path class="cls-33" d="m194.42,365.89c0-2.74-2.22-4.96-4.96-4.96s-4.96,2.22-4.96,4.96,2.22,4.96,4.96,4.96,4.96-2.22,4.96-4.96Z"/>
      <path class="cls-40" d="m201.43,365.89c0-2.74-2.22-4.96-4.96-4.96s-4.96,2.22-4.96,4.96,2.22,4.96,4.96,4.96,4.96-2.22,4.96-4.96Zm-8.93,0c0-2.19,1.78-3.96,3.96-3.96s3.96,1.78,3.96,3.96-1.78,3.96-3.96,3.96-3.96-1.78-3.96-3.96Z"/>
      <path class="cls-5" d="m164.56,337.28h38.33c2.93,0,5.31,2.38,5.31,5.32v31.23c0,2.93-2.38,5.31-5.31,5.31h-50c-2.93,0-5.31-2.38-5.31-5.31v-31.23c0-2.94,2.38-5.32,5.31-5.32h4.58"/>
      <circle class="cls-23" cx="286.75" cy="194.58" r="13.37" transform="translate(-37.04 71.09) rotate(-13.28)"/>
      <path class="cls-2" d="m356.13,415.55c7.22,0,13.08-5.86,13.08-13.08v-85.26c0-7.22-5.86-13.08-13.08-13.08h-101.58c-7.22,0-13.08,5.86-13.08,13.08v85.26c0,7.22,5.86,13.08,13.08,13.08h101.58Z"/>
      <path class="cls-15" d="m326.2,321.37s-31.72,7.64-41.11,11.38c-9.38,3.74-23.67,6.64-23.67,6.64,0,0,3.16,15.36,3.82,18.44l65.36-14.28-4.4-22.17Z"/>
      <g>
        <circle class="cls-30" cx="301.89" cy="343.79" r="12.32"/>
        <path class="cls-7" d="m297.2,342.22c.58,1.52,1.9,2.71,4.55,2.46,1.29-.11,2.27-.21,2.73,1.01.41,1.09-.34,1.95-1.04,2.22-.57.22-1.7.26-2.25-.97l-2.44.93.1.26c.15.39,1.17,2.64,4.39,2.36l.92,2.42,2.33-.89-.93-2.44c1.28-.93,2.19-2.7,1.38-4.84-1.1-2.89-3.58-2.73-4.34-2.67-1.78.1-2.59.16-2.97-.86-.3-.8.16-1.52.74-1.74.93-.35,1.43.32,1.69.65l2.31-.88c-.76-1.55-2.13-2.32-3.59-2.26l-.91-2.4-2.33.89.9,2.37c-1.44,1.05-1.85,2.76-1.23,4.38Z"/>
      </g>
      <path class="cls-15" d="m334.34,356.17c2.82-8.64,0-21.26,0-21.26,0,0-16.86,1.41-31.97,6.39-15.11,4.98-31.47,4.4-31.47,4.4v14.3s60.62,4.8,63.45-3.83Z"/>
      <g>
        <circle class="cls-18" cx="305.71" cy="356.75" r="12.32" transform="translate(-145.02 489.31) rotate(-65.79)"/>
        <path class="cls-7" d="m301.01,355.18c.58,1.52,1.9,2.71,4.55,2.46,1.29-.11,2.27-.21,2.73,1.01.41,1.09-.34,1.95-1.04,2.22-.57.22-1.7.26-2.25-.97l-2.44.93.1.26c.15.39,1.17,2.64,4.39,2.36l.92,2.42,2.33-.89-.93-2.44c1.28-.93,2.19-2.7,1.38-4.84-1.1-2.89-3.58-2.73-4.34-2.67-1.78.1-2.59.16-2.97-.86-.3-.8.16-1.52.74-1.74.92-.35,1.43.32,1.69.65l2.31-.88c-.76-1.55-2.13-2.32-3.59-2.26l-.91-2.4-2.33.89.9,2.37c-1.44,1.05-1.85,2.76-1.23,4.38Z"/>
      </g>
      <path class="cls-39" d="m306.48,395.45c4.85-.21,37.08-11.77,37.08-11.77l-1.28-36.08s-34.22,10.41-36.93,10.55c-2.71.14-39.22-4.28-46.2-5.42,0,0-1.28,17.97-1,20.74.29,2.77,2.85,17.9,2.85,17.9,0,0,40.64,4.28,45.49,4.07Z"/>
      <path class="cls-14" d="m305.71,364.2v26.78"/>
      <path class="cls-7" d="m273.16,382.94l.71-12.39-21.84-1.47s.05,12.12,0,12.28c-.05.16,21.13,1.58,21.13,1.58Z"/>
      <path class="cls-19" d="m268.95,376.06c0-1.72-1.27-3.11-2.84-3.11s-2.84,1.39-2.84,3.11,1.27,3.11,2.84,3.11,2.84-1.39,2.84-3.11Z"/>
      <g>
        <polyline class="cls-1" points="413.86 226.45 428.13 207.2 440.95 207.2 452.1 192.71 468.06 189.9 481.93 174.25"/>
        <polygon class="cls-32" points="475.71 172.84 483.43 180.11 485.87 169.79 475.71 172.84"/>
      </g>
      <path class="cls-21" d="m547.75,226.83l5.69-7.01h38.55c3.66,0,6.62-2.97,6.62-6.62v-16.31c0-3.66-2.97-6.62-6.62-6.62h-40.47c-3.66,0-6.62,2.97-6.62,6.62v28.93c0,1.51,1.9,2.19,2.86,1.01Z"/>
      <g>
        <path class="cls-16" d="m559.83,208.09c1.68,0,3.04-1.36,3.04-3.04s-1.36-3.04-3.04-3.04-3.04,1.36-3.04,3.04,1.36,3.04,3.04,3.04Z"/>
        <path class="cls-16" d="m574.8,205.04c0-1.68-1.36-3.04-3.04-3.04s-3.04,1.36-3.04,3.04,1.36,3.04,3.04,3.04,3.04-1.36,3.04-3.04Z"/>
        <path class="cls-16" d="m586.73,205.04c0-1.68-1.36-3.04-3.04-3.04s-3.04,1.36-3.04,3.04,1.36,3.04,3.04,3.04,3.04-1.36,3.04-3.04Z"/>
      </g>
      <path class="cls-9" d="m497.29,215.92c2.28,9.03,4.94,17.21,8.86,19.31.21,1.64-.78,1.54-1.2,4.52-.42,2.98,9.13,10.74,9.13,10.74l14.74-13.03c-7.91-4.33-8.24-14.69-8.24-14.69,2.47.38,6.63-5.92,2.43-8.65-3.41-2.22-5.76,3.04-5.76,3.04-1.05-1.81,0-3.61,0-3.61-5.23.57-3.99-4.25-3.99-4.25-6.65,2.69-9.32-1.93-9.32-1.93-1.24,4.47-5.04,2.76-5.04,2.76,1.05,4.94-1.62,5.8-1.62,5.8Z"/>
      <path class="cls-4" d="m506.15,235.23s9.67,4.5,13.02-9.71"/>
      <path class="cls-4" d="m519.48,219.99c-.31-2.33,1.34-4.14,2.24-4.14"/>
      <path class="cls-4" d="m498.95,217.47c.77-1.54,2.47-1.76,3.79-.88"/>
      <path class="cls-4" d="m506.92,215.6c.93-1.76,3.35-1.87,4.95-.49"/>
      <path class="cls-26" d="m502.7,220.72c-.1-.64-.6-1.09-1.12-1.01-.52.08-.85.67-.75,1.3.1.64.6,1.09,1.12,1.01.52-.08.85-.67.75-1.3Z"/>
      <path class="cls-26" d="m511.45,219.18c-.1-.64-.6-1.09-1.12-1.01-.52.08-.85.67-.75,1.3.1.64.6,1.09,1.12,1.01.52-.08.85-.67.75-1.3Z"/>
      <path class="cls-9" d="m536.46,282.72l-1.35-24.65c0,.31,1.35,24.65,1.35,24.65Z"/>
      <path class="cls-9" d="m488.51,280.02v-17.37c-.1.31,0,17.37,0,17.37Z"/>
      <path class="cls-9" d="m551.6,283.74c.07-.74.11-1.2.11-1.2-9.58,3.51-15.27-.18-15.27-.18,0,0-1.64,6.62-2.24,7.67-.6,1.05-27.09,16.69-29.56,17.81-2.47,1.12-6.81,0-12.8,0v12.5s16.01-2.02,18.41-3.07c2.39-1.05,37.35-19.91,38.92-21.83,1.25-1.53,2.12-8.8,2.43-11.7Z"/>
      <polygon class="cls-9" points="489.52 280.02 440.1 280.02 447.18 316.84 496.6 316.84 489.52 280.02"/>
      <path class="cls-9" d="m467.94,295.02c-2.83,0-5.13,2.3-5.13,5.13s2.3,5.13,5.13,5.13c1.59,0,3-.72,3.94-1.84l-3.94-3.29,4.46-2.54c-.88-1.54-2.55-2.59-4.46-2.59Z"/>
      <polygon class="cls-9" points="496.83 316.84 447.18 316.84 464.63 323.72 514.28 323.72 496.83 316.84"/>
      <path class="cls-26" d="m551.02,356.2c-1.17-1.75-9.21-1.52-13.53-1.05-4.32.47-15.28-1.75-19.79-2.81l-2.84,11.21s18.85,4.01,25.78,4.08c8.86.09,11.55-9.68,10.38-11.43Z"/>
      <path class="cls-9" d="m516.14,365.41s7-5.6,7.15-13.37c0,0-60.42-37.5-76.94-39.51-4.43-.54-8.89,1.12-11.87,4.02l-3.44,6.35c-.48,2.91.28,6.16,2.84,9.4,8.24,10.42,82.27,33.13,82.27,33.13Z"/>
      <path class="cls-26" d="m484.24,359.84c5.13.11,11.26-.55,13.08-5.19,1.82-4.63,10.92-9.77,10.92-9.77l-11.64-8.69c-7.07,6.04-14.11,9.69-20.31,11.67-6.2,1.97-16.06,3.48-16.88,6.62-.83,3.14,2.61,6.12,10.16,7.61,7.55,1.49,9.54-2.37,14.67-2.26Z"/>
      <path class="cls-4" d="m504.34,219.99c.89,2.85.71,6.82.71,6.82,0,0,3.36-.51,4.35-1.29"/>
      <path class="cls-4" d="m508.37,230.35c1.54.38,3.32-.57,3.5-2.23"/>
      <g>
        <g>
          <g>
            <line class="cls-6" x1="282.22" y1="168.52" x2="282.22" y2="175.11"/>
            <line class="cls-6" x1="291.28" y1="168.52" x2="291.28" y2="171.82"/>
          </g>
          <g>
            <line class="cls-6" x1="291.28" y1="220.64" x2="291.28" y2="214.05"/>
            <line class="cls-6" x1="282.22" y1="220.64" x2="282.22" y2="217.35"/>
          </g>
        </g>
        <g>
          <g>
            <line class="cls-6" x1="312.81" y1="190.05" x2="306.22" y2="190.05"/>
            <line class="cls-6" x1="312.81" y1="199.11" x2="309.51" y2="199.11"/>
          </g>
          <g>
            <line class="cls-6" x1="260.69" y1="199.11" x2="267.28" y2="199.11"/>
            <line class="cls-6" x1="260.69" y1="190.05" x2="263.98" y2="190.05"/>
          </g>
        </g>
      </g>
      <g>
        <polyline class="cls-5" points="278.02 135.05 278.02 88.52 248.7 60.31"/>
        <polyline class="cls-5" points="309.51 138.5 309.51 107.52 326.22 87.62"/>
        <path class="cls-5" d="m328.06,157.14c.25.47,17.99,0,17.99,0l58.3-60.66h16.7"/>
        <polyline class="cls-5" points="339.79 183.41 360.37 183.41 378.25 212.38 386.18 212.38"/>
        <polyline class="cls-5" points="323.27 247.26 350.39 247.26 405.62 342.1 420.91 342.1"/>
        <polyline class="cls-5" points="271.93 244.81 271.93 270.39 296.37 270.39 296.37 295.02"/>
        <polyline class="cls-5" points="250.53 244.81 231.05 244.81 186.18 315.03 186.18 328.78"/>
        <polyline class="cls-5" points="170.83 242.86 181.99 242.86 211.58 211.46 234.26 211.46"/>
        <polyline class="cls-5" points="186.18 158.9 201.65 158.9 213.05 183.41 234.26 183.41"/>
      </g>
      <path class="cls-9" d="m529.82,354.64l3.59-1.02s19.53-17.52,25.56-26.57c2.17-3.26,3.66-7.59,4.01-11.94l-.73-7.76c-1.39-4.63-4.68-8.42-10.54-9.74-13.5-3.04-45.7,26.71-57.27,37.35-.44.42-.85.79-1.23,1.14,1.14,4.74,9.9,14.07,11.34,14.36,1.21.23,7.22-3.15,9.14-4.26.37-.21.59-.34.59-.34l.54,1.02c5.21,3.13,8.47,5.15,8.47,5.15-.01.5-.05,1-.11,1.48,2.11.41,4.43.82,6.64,1.13Z"/>
      <path class="cls-9" d="m551.71,322.89l-37.44,22.98s25-14.5,37.44-22.98Z"/>
      <path class="cls-26" d="m63.25,495.38c-2.81-5.29-13.51-7.34-13.51-7.34,0,0-1.81,2.83-2.37,5.36-.56,2.53-22,0-22,0,0,0-.52,2.35.46,3.33.98.98,40.24,3.93,37.42-1.35Z"/>
      <path class="cls-26" d="m130.18,497.75c-1.53-5.79-11.48-10.23-11.48-10.23,0,0-2.41,2.34-3.54,4.67-1.13,2.34-21.42-5.03-21.42-5.03,0,0-1.04,2.17-.31,3.35.73,1.18,38.27,13.04,36.74,7.24Z"/>
      <g>
        <path class="cls-31" d="m166.88,180.36c-5.05-6.28-14.33-17.84-14.72-18.32,0,0,0-.02,0-.02h-.01l-23.43-2.17c-.74,8.03,2.68,16.23,9.71,21.28,8.78,6.31,20.43,5.7,28.46-.77Z"/>
        <polyline class="cls-14" points="139.69 181.98 152.15 162.02 152.15 185.55"/>
        <path class="cls-29" d="m150.05,138.59l2.1,23.43,16.24-17.02c-4.73-4.51-11.31-7.04-18.34-6.41Z"/>
        <path class="cls-5" d="m175.67,162.02c0-12.99-10.53-23.52-23.52-23.52s-23.53,10.53-23.53,23.52,10.53,23.53,23.53,23.53,23.52-10.53,23.52-23.53Z"/>
      </g>
      <path class="cls-7" d="m336.24,395.37v-5.49h-19.33v5.13c-.05.12-.09.24-.09.36,0,1.58,4.35,2.85,9.71,2.85s9.71-1.28,9.71-2.85Z"/>
      <path class="cls-7" d="m336.24,390.24c0-1.57-4.35-2.85-9.71-2.85s-9.71,1.28-9.71,2.85,4.35,2.85,9.71,2.85,9.71-1.28,9.71-2.85Z"/>
      <path class="cls-15" d="m358.67,395.45v-5.49h-19.33v5.13c-.05.12-.09.24-.09.36,0,1.57,4.35,2.85,9.71,2.85s9.71-1.28,9.71-2.85Z"/>
      <path class="cls-15" d="m358.67,389.95v-5.49h-19.33v5.13c-.05.12-.09.24-.09.36,0,1.58,4.35,2.85,9.71,2.85s9.71-1.28,9.71-2.85Z"/>
      <path class="cls-15" d="m358.67,384.46v-5.49h-19.33v5.13c-.05.12-.09.24-.09.36,0,1.58,4.35,2.85,9.71,2.85s9.71-1.28,9.71-2.85Z"/>
      <path class="cls-15" d="m358.67,378.97v-5.49h-19.33v5.13c-.05.12-.09.24-.09.36,0,1.57,4.35,2.85,9.71,2.85s9.71-1.28,9.71-2.85Z"/>
      <path class="cls-15" d="m358.67,373.47v-5.49h-19.33v5.13c-.05.12-.09.24-.09.36,0,1.58,4.35,2.85,9.71,2.85s9.71-1.28,9.71-2.85Z"/>
      <path class="cls-15" d="m358.67,367.98v-5.49h-19.33v5.13c-.05.12-.09.24-.09.36,0,1.58,4.35,2.85,9.71,2.85s9.71-1.28,9.71-2.85Z"/>
      <ellipse class="cls-15" cx="348.96" cy="362.85" rx="9.71" ry="2.85"/>
    </g>
  </g>
</svg>