<svg width="264" height="45" viewBox="0 0 264 45" fill="none" xmlns="http://www.w3.org/2000/svg">
<path d="M38.8798 26.9041C38.0879 27.3837 37.164 27.4709 36.4602 27.0785C35.5803 26.5552 35.0524 25.3779 35.0524 23.7645V18.8372C35.0524 16.4826 34.1285 14.782 32.5448 14.3459C29.8613 13.561 27.8376 16.8314 27.0897 18.0523L22.3385 25.5959V16.3081C22.2945 14.1715 21.5906 12.907 20.2709 12.5145C19.391 12.2529 18.0712 12.3837 16.7954 14.3023L6.1932 31.1337C4.78543 28.4738 4.03756 25.5087 4.03756 22.5C4.03756 12.3401 12.2642 4.09883 22.3385 4.09883C32.4128 4.09883 40.6395 12.3401 40.6395 22.5V22.5436V22.5872C40.7274 24.5494 40.1115 26.1192 38.8798 26.9041ZM44.6868 22.5V22.4564V22.4128C44.6428 10.0727 34.6125 0 22.3385 0C10.0206 0 -0.00976562 10.0727 -0.00976562 22.5C-0.00976562 34.8837 10.0206 45 22.3385 45C28.0136 45 33.3807 42.8634 37.516 38.9826C38.3518 38.1977 38.3958 36.9331 37.604 36.1047C36.8561 35.2762 35.5803 35.2326 34.7444 35.9738C34.7444 35.9738 34.7444 35.9738 34.7004 36.0174C31.357 39.157 26.8698 40.9448 22.2505 40.9448C16.8394 40.9448 12.0002 38.5901 8.65679 34.8401L18.2032 19.6657V26.686C18.2032 30.0436 19.523 31.1337 20.6228 31.439C21.7226 31.7442 23.3943 31.5262 25.198 28.6919L30.4332 20.2762C30.6091 20.0145 30.7411 19.7529 30.9171 19.5785V23.8517C30.9171 26.9913 32.1929 29.5203 34.3925 30.7413C36.3722 31.875 38.8798 31.7442 40.9474 30.4796C43.499 28.8227 44.8628 25.9448 44.6868 22.5ZM75.8336 14.8256C76.3615 15.1308 76.8454 15.8721 76.8454 16.5262C76.8454 17.5727 75.9656 18.4448 74.9537 18.4448C74.6898 18.4448 74.4698 18.3576 74.2499 18.314C73.0621 17.4419 71.5663 16.875 69.9826 16.875C66.2432 16.875 63.6916 19.8837 63.6916 23.6337C63.6916 27.3837 66.2872 30.3488 69.9826 30.3488C71.8303 30.3488 73.502 29.6076 74.7338 28.4302C75.0417 28.2122 75.4377 28.0814 75.8336 28.0814C76.8454 28.0814 77.6373 28.8663 77.6373 29.8692C77.6373 30.5233 77.2414 31.0901 76.7574 31.3953C74.9537 32.9215 72.5341 33.9244 70.0266 33.9244C64.3075 33.9244 59.6443 29.2587 59.6443 23.5029C59.6443 17.7471 64.3075 13.0814 70.0266 13.0814C72.1382 13.0378 74.1619 13.6919 75.8336 14.8256ZM86.3038 19.186C90.2192 19.186 93.4747 22.4564 93.4747 26.5116C93.4747 30.5233 90.1752 33.968 86.3038 33.968C82.2125 33.968 78.8251 30.5669 78.8251 26.5116C78.8251 22.4564 82.2125 19.186 86.3038 19.186ZM86.2599 30.3488C87.9756 30.3488 89.4273 28.7355 89.4273 26.5552C89.4273 24.375 87.9756 22.9797 86.2599 22.9797C84.4122 22.9797 82.8724 24.3314 82.8724 26.5552C82.8724 28.6919 84.4122 30.3488 86.2599 30.3488ZM95.9382 31.7006V21.4099C95.9382 20.2762 96.8181 19.3605 97.9619 19.3605C99.0617 19.3605 99.9856 20.2762 99.9856 21.4099V31.7006C99.9856 32.8343 99.0617 33.75 97.9619 33.75C96.8621 33.75 95.9382 32.7907 95.9382 31.7006ZM95.6303 15.4796C95.6303 14.1279 96.6861 13.0814 97.9619 13.0814C99.2817 13.0814 100.338 14.1715 100.338 15.4796C100.338 16.7878 99.2817 17.8343 97.9619 17.8343C96.6421 17.7907 95.6303 16.7442 95.6303 15.4796ZM107.728 26.1192V31.7006C107.728 32.8343 106.804 33.75 105.705 33.75C104.605 33.75 103.681 32.8343 103.681 31.7006V20.9302C103.681 20.0581 104.385 19.3605 105.265 19.3605C106.145 19.3605 106.804 20.1017 106.804 20.9302C108.432 19.4041 109.884 19.186 111.248 19.186C115.295 19.186 117.099 22.1948 117.099 25.6395V31.7006C117.099 32.8343 116.175 33.75 115.075 33.75C113.975 33.75 113.051 32.8343 113.051 31.7006V26.1192C113.051 24.375 112.831 22.8924 110.28 22.8924C108.476 22.8924 107.728 24.375 107.728 26.1192ZM130.209 28.2558C129.725 28.2558 129.417 28.0378 129.153 27.7326L124.445 22.6744V31.7006C124.445 32.8343 123.522 33.75 122.422 33.75C121.322 33.75 120.398 32.8343 120.398 31.7006V13.8227C120.53 13.5174 120.838 13.2994 121.146 13.2994C121.498 13.2994 121.806 13.6047 122.026 13.8227L129.549 22.1948C129.769 22.4564 130.033 22.5872 130.209 22.5872C130.341 22.5872 130.648 22.4564 130.868 22.1948L138.391 13.8227C138.611 13.6047 138.875 13.2994 139.271 13.2994C139.623 13.2994 139.931 13.5174 140.019 13.8227V31.7006C140.019 32.8343 139.139 33.75 137.995 33.75C136.895 33.75 135.972 32.8343 135.972 31.7006V22.6744L131.264 27.7326C130.912 28.0378 130.604 28.2558 130.209 28.2558ZM149.653 30.3488C151.457 30.3488 152.997 28.7355 152.997 26.5552C152.997 24.375 151.413 22.936 149.653 22.936C147.894 22.936 146.442 24.4186 146.442 26.5552C146.442 28.6482 147.85 30.3488 149.653 30.3488ZM153.965 32.1802L153.877 31.7006C153.085 33.2267 150.577 33.9244 148.993 33.9244C145.21 33.9244 142.394 30.5233 142.394 26.468C142.394 22.4564 145.254 19.1424 149.213 19.1424C149.873 19.1424 152.161 19.3169 153.921 21.3663L154.009 20.8866C154.009 20.0145 154.668 19.3169 155.548 19.3169C156.428 19.3169 157.132 20.0581 157.132 20.8866V32.1366C157.132 33.0087 156.428 33.7064 155.548 33.7064C154.624 33.75 153.965 33.0087 153.965 32.1802ZM168.262 22.8924H167.822C165.271 23.0233 164.787 24.4622 164.787 26.1192V31.7006C164.787 32.8343 163.863 33.75 162.763 33.75C161.663 33.75 160.739 32.8343 160.739 31.7006V20.9302C160.739 20.0581 161.443 19.3605 162.323 19.3605C163.203 19.3605 163.863 20.1017 163.863 20.9302C165.359 19.5349 166.59 19.2296 167.822 19.186H168.218C169.186 19.186 170.066 20.0145 170.066 21.0611C170.11 22.0204 169.23 22.8924 168.262 22.8924ZM183.88 30.7413C184.056 31.0465 184.188 31.3517 184.188 31.7006C184.188 32.7471 183.22 33.7064 182.164 33.7064C181.46 33.7064 180.844 33.1831 180.36 32.5727L175.697 27.2093V31.657C175.697 32.7907 174.773 33.7064 173.673 33.7064C172.573 33.7064 171.65 32.7907 171.65 31.657V15.3052C171.65 14.1715 172.529 13.2558 173.673 13.2558C174.817 13.2558 175.697 14.1715 175.697 15.3052V25.5087L180.36 20.407C180.844 19.8837 181.416 19.3169 182.12 19.3169C183.132 19.3169 184.056 20.2326 184.056 21.2791C184.056 21.5843 183.968 21.9331 183.792 22.1948L180.096 26.2064L183.88 30.7413ZM191.798 22.936C190.698 22.936 188.895 23.5029 188.895 25.2035H194.746C194.702 23.5029 192.854 22.936 191.798 22.936ZM197.077 27.7762H188.895C188.895 30.1744 191.226 30.5669 192.238 30.5669C192.986 30.5669 194.042 30.436 194.878 30.0436C195.142 29.8692 195.538 29.7384 195.934 29.7384C196.813 29.7384 197.561 30.4796 197.561 31.3953C197.561 32.0058 197.165 32.5291 196.681 32.8343C195.45 33.75 193.822 33.968 192.282 33.968C188.191 33.968 184.803 31.7878 184.803 26.686C184.803 22.6744 186.871 19.186 191.71 19.186C195.626 19.186 198.573 21.7151 198.661 26.2064C198.661 27.0349 197.957 27.7762 197.077 27.7762ZM208.34 33.9244H207.24C204.16 33.9244 202.357 32.5727 202.357 27.8198V22.8924H201.301C200.333 22.8924 199.497 22.0204 199.497 21.0611C199.497 20.0145 200.377 19.186 201.301 19.186H202.357V15.3924C202.357 14.2587 203.236 13.343 204.38 13.343C205.48 13.343 206.404 14.2587 206.404 15.3924V19.186H208.076C209.043 19.186 209.879 20.0145 209.879 21.0611C209.879 22.0204 208.999 22.8924 208.076 22.8924H206.404V27.0349C206.404 29.782 206.536 30.3488 207.768 30.3488H208.34C209.307 30.3488 210.143 31.1337 210.143 32.1366C210.143 33.0959 209.307 33.9244 208.34 33.9244ZM227.916 14.8256C228.444 15.1308 228.928 15.8721 228.928 16.5262C228.928 17.5727 228.048 18.4448 227.036 18.4448C226.772 18.4448 226.552 18.3576 226.333 18.314C225.145 17.4419 223.649 16.875 222.065 16.875C218.326 16.875 215.774 19.8837 215.774 23.6337C215.774 27.3837 218.37 30.3488 222.065 30.3488C223.913 30.3488 225.585 29.6076 226.816 28.4302C227.124 28.2122 227.52 28.0814 227.916 28.0814C228.928 28.0814 229.72 28.8663 229.72 29.8692C229.72 30.5233 229.324 31.0901 228.84 31.3953C227.036 32.9215 224.617 33.9244 222.109 33.9244C216.39 33.9244 211.727 29.2587 211.727 23.5029C211.727 17.7471 216.39 13.0814 222.109 13.0814C224.221 13.0378 226.289 13.6919 227.916 14.8256ZM238.167 30.3488C239.97 30.3488 241.51 28.7355 241.51 26.5552C241.51 24.375 239.926 22.936 238.167 22.936C236.363 22.936 234.955 24.4186 234.955 26.5552C234.955 28.6482 236.407 30.3488 238.167 30.3488ZM242.478 32.1802L242.39 31.7006C241.598 33.2267 239.09 33.9244 237.507 33.9244C233.723 33.9244 230.908 30.5233 230.908 26.468C230.908 22.4564 233.767 19.1424 237.727 19.1424C238.386 19.1424 240.674 19.3169 242.434 21.3663L242.522 20.8866C242.522 20.0145 243.182 19.3169 244.062 19.3169C244.941 19.3169 245.645 20.0581 245.645 20.8866V32.1366C245.645 33.0087 244.941 33.7064 244.062 33.7064C243.138 33.75 242.478 33.0087 242.478 32.1802ZM256.687 30.3488C258.491 30.3488 259.899 28.6482 259.899 26.5552C259.899 24.375 258.447 22.936 256.687 22.936C254.884 22.936 253.344 24.375 253.344 26.5552C253.344 28.7355 254.884 30.3488 256.687 30.3488ZM253.344 32.7471V37.8488C253.344 38.9826 252.42 39.8983 251.32 39.8983C250.221 39.8983 249.297 38.9826 249.297 37.8488V20.9302C249.297 20.0581 250.001 19.3605 250.88 19.3605C251.76 19.3605 252.42 20.1017 252.42 21.1046C253.916 19.5785 255.764 19.186 257.171 19.186C261.087 19.186 263.99 22.4564 263.99 26.5116C263.99 30.5233 261.219 33.968 257.391 33.968C256.204 33.9244 254.444 33.5756 253.344 32.7471Z" fill="white"/>
</svg>
