<svg width="254" height="59" viewBox="0 0 254 59" fill="none" xmlns="http://www.w3.org/2000/svg">
<path fill-rule="evenodd" clip-rule="evenodd" d="M1.9988 10.0752C0 14.0119 0 19.1763 0 29.5051C0 39.8339 0 44.9983 1.9988 48.935C3.74394 52.4253 6.58487 55.1952 10.065 57.0012C14.0017 59 19.1661 59 29.4949 59C39.8237 59 44.9881 59 48.9248 57.0012C52.4151 55.2561 55.185 52.4151 56.9911 48.935C58.9899 44.9983 58.9899 39.8339 58.9899 29.5051C58.9899 19.1763 58.9899 14.0119 56.9911 10.0752C55.2459 6.58487 52.405 3.81496 48.9248 2.00894C44.9983 0 39.8339 0 29.5051 0C19.1763 0 14.0017 0 10.065 1.9988C6.58487 3.74394 3.80481 6.58487 1.9988 10.0752ZM44.1561 15.8788C44.6736 15.8788 45.1911 16.0715 45.5157 16.4571C45.9013 16.8426 46.0941 17.2992 46.0941 17.8167C46.0332 23.3058 45.7694 27.5063 45.3838 30.8545C44.9983 34.152 44.4199 36.6683 43.5068 38.6671C42.9285 40.0267 42.2182 41.1224 41.3152 42.0255C40.1484 43.2531 38.8598 44.1561 37.4394 45.0592C36.79 45.4447 36.2117 45.7694 35.5015 46.1549C34.081 46.9971 32.5286 47.8291 30.7226 49.0568C30.0733 49.5133 29.2413 49.5133 28.5919 49.0568C26.7859 47.8291 25.1727 46.9261 23.7522 46.1549C23.4275 45.9622 23.1028 45.7694 22.7883 45.6375C21.1142 44.6736 19.5618 43.6996 18.2733 42.411C17.3702 41.508 16.5991 40.4731 16.0107 39.1845C15.1685 37.4394 14.5902 35.3797 14.2046 32.7316C13.6263 29.1804 13.3625 24.4624 13.3016 17.9486C13.3016 17.4311 13.4944 16.9137 13.8191 16.589C14.2046 16.2034 14.6612 16.0107 15.1787 16.0107H15.9498C18.4052 16.0107 23.7623 15.757 28.4093 12.1348C29.1195 11.6174 30.0834 11.6174 30.7328 12.1348C35.3797 15.7469 40.8079 16.0107 43.2633 16.0107H44.0344L44.1561 15.8788ZM39.8948 37.3887C40.4731 36.161 40.9905 34.4158 41.3761 32.0315C41.8327 29.1297 42.0863 25.1219 42.2182 19.7039C39.3773 19.643 34.4057 19.0545 29.6877 15.8991C24.9697 19.0647 20.0691 19.5821 17.1572 19.7039C17.2891 24.158 17.4819 27.6483 17.8065 30.4182C18.1921 33.5128 18.7095 35.6435 19.3589 37.135C19.8155 38.0989 20.2619 38.8091 20.8402 39.4585C21.6113 40.3006 22.5854 41.0108 23.8739 41.7819C24.3914 42.1066 25.0408 42.4313 25.68 42.8169C26.8468 43.4662 28.1962 44.2373 29.6877 45.2012C31.169 44.2982 32.4678 43.5271 33.6244 42.8777C33.9491 42.685 34.3346 42.4922 34.5883 42.2994C36.2015 41.3964 37.4292 40.6253 38.2714 39.7121C38.8497 39.0628 39.3672 38.4236 39.8237 37.5205L39.8948 37.3887Z" fill="#3375BB"/>
<path d="M82.7021 23.5697H76.1172V19.6938H94.0658V23.5697H87.4809V40.2906H82.7021V23.5697ZM99.494 26.5324C100.072 25.7612 100.783 25.1728 101.686 24.7872C102.649 24.4017 103.684 24.2089 104.912 24.2089V28.4703C104.395 28.4094 104.07 28.4094 103.877 28.4094C102.589 28.4094 101.554 28.795 100.783 29.5052C100.011 30.2154 99.6867 31.3112 99.6867 32.8027V40.2906H95.1007V24.4017H99.494V26.4715V26.5324ZM122.871 24.4727V40.3514H118.477V38.4744C117.899 39.1846 117.118 39.7021 116.286 40.0876C115.444 40.4123 114.541 40.6051 113.577 40.6051C111.507 40.6051 109.833 40.0268 108.605 38.7991C107.378 37.5714 106.799 35.8263 106.799 33.4419V24.4625H111.385V32.7317C111.385 35.3189 112.481 36.5365 114.612 36.5365C115.708 36.5365 116.611 36.2118 117.26 35.5016C117.909 34.7913 118.295 33.6956 118.295 32.2751V24.4625H122.871V24.4727ZM131.586 40.5442C130.298 40.5442 128.999 40.4123 127.71 40.0876C126.483 39.763 125.448 39.3165 124.677 38.86L126.229 35.5625C126.939 36.019 127.782 36.4046 128.816 36.6582C129.851 36.9119 130.815 37.0438 131.789 37.0438C133.727 37.0438 134.691 36.5872 134.691 35.6233C134.691 35.1668 134.437 34.8522 133.92 34.6594C133.402 34.4667 132.56 34.2739 131.465 34.142C130.176 33.9492 129.08 33.6854 128.238 33.4926C127.396 33.239 126.625 32.7824 126.047 32.133C125.468 31.4837 125.144 30.5807 125.144 29.353C125.144 28.3181 125.397 27.476 125.986 26.7048C126.564 25.9337 127.406 25.2844 128.502 24.8988C129.598 24.4422 130.957 24.2495 132.439 24.2495C133.534 24.2495 134.701 24.3814 135.797 24.635C136.893 24.8887 137.867 25.2134 138.577 25.6699L137.025 28.9674C135.604 28.1963 134.123 27.8006 132.439 27.8006C131.475 27.8006 130.693 27.9325 130.247 28.1862C129.73 28.4398 129.537 28.8355 129.537 29.2211C129.537 29.7385 129.79 30.0632 130.308 30.256C130.825 30.4488 131.667 30.6416 132.824 30.8343C134.113 31.0271 135.209 31.2909 135.99 31.5446C136.832 31.7982 137.542 32.1939 138.12 32.9042C138.699 33.5535 139.023 34.4565 139.023 35.6132C139.023 36.5771 138.699 37.4902 138.12 38.2613C137.542 39.0324 136.639 39.6209 135.533 40.0674C134.437 40.4529 133.078 40.7167 131.525 40.7167L131.586 40.5442ZM151.209 39.5195C150.752 39.8441 150.174 40.0978 149.535 40.2906C148.886 40.4225 148.175 40.5442 147.465 40.5442C145.588 40.5442 144.107 40.0876 143.072 39.1238C142.037 38.1599 141.519 36.7394 141.519 34.8624V28.3384H139.064V24.7872H141.519V20.9114H146.105V24.7872H150.042V28.3384H146.105V34.8015C146.105 35.4508 146.298 35.9683 146.623 36.3539C146.948 36.6785 147.465 36.8713 148.104 36.8713C148.815 36.8713 149.464 36.6785 149.981 36.293L151.209 39.5195ZM191.885 19.633L185.107 40.2297H180.004L175.489 26.2787L170.771 40.2297H165.667L158.89 19.633H163.861L168.508 34.1623L173.348 19.633H177.741L182.459 34.2232L187.238 19.633H191.824H191.885ZM198.541 24.148C200.996 24.148 202.863 24.7263 204.223 25.8931C205.511 27.06 206.222 28.795 206.222 31.1895V40.2297H201.899V38.2309C201.057 39.7122 199.444 40.4225 197.06 40.4225C195.832 40.4225 194.797 40.2297 193.894 39.7731C192.991 39.3876 192.342 38.8092 191.895 38.099C191.449 37.3888 191.185 36.5466 191.185 35.6436C191.185 34.1623 191.763 32.9955 192.859 32.1533C193.955 31.3112 195.7 30.8648 198.023 30.8648H201.707C201.707 29.8299 201.382 29.1196 200.804 28.5413C200.225 27.963 199.251 27.6992 198.094 27.6992C197.252 27.6992 196.42 27.8311 195.578 28.0847C194.807 28.3384 194.097 28.6631 193.508 29.1196L191.834 25.8931C192.676 25.3148 193.711 24.7974 194.929 24.4727C196.157 24.148 197.384 23.9552 198.673 23.9552L198.541 24.148ZM198.216 37.3888C198.987 37.3888 199.698 37.196 200.286 36.8713C200.864 36.4858 201.321 35.9683 201.575 35.2581V33.6448H198.409C196.532 33.6448 195.568 34.2942 195.568 35.5219C195.568 36.1002 195.822 36.5568 196.278 36.9423C196.735 37.267 197.374 37.4598 198.216 37.4598V37.3888ZM209.448 18.4053H214.034V40.2906H209.448V18.4053ZM217.453 18.4053H222.039V40.2906H217.453V18.4053ZM240.962 32.4171C240.962 32.478 240.962 32.8737 240.901 33.6448H228.888C229.081 34.6087 229.598 35.39 230.44 35.9683C231.212 36.5466 232.247 36.8104 233.474 36.8104C234.316 36.8104 235.027 36.6785 235.666 36.4858C236.315 36.2321 236.893 35.8364 237.472 35.3189L239.927 37.9671C238.446 39.6412 236.244 40.5544 233.403 40.5544C231.597 40.5544 230.045 40.2297 228.685 39.5195C227.326 38.8092 226.23 37.8453 225.52 36.6177C224.748 35.39 224.424 33.9695 224.424 32.4171C224.424 30.8648 224.809 29.4443 225.52 28.2166C226.291 26.9889 227.265 25.954 228.553 25.3148C229.842 24.6046 231.262 24.2799 232.876 24.2799C234.428 24.2799 235.848 24.6046 237.076 25.3148C238.304 25.9642 239.339 26.9281 240.049 28.2166C240.759 29.4443 241.145 30.9257 241.145 32.5389L240.962 32.4171ZM232.754 27.6992C231.719 27.6992 230.816 28.0238 230.106 28.6022C229.395 29.1805 228.939 30.0226 228.817 30.9865H236.63C236.498 29.9516 236.051 29.1805 235.341 28.6022C234.631 28.0238 233.789 27.6992 232.754 27.6992ZM253.351 39.5195C252.894 39.8441 252.316 40.0978 251.676 40.2906C251.027 40.4225 250.317 40.5442 249.607 40.5442C247.73 40.5442 246.248 40.0876 245.213 39.1238C244.178 38.1599 243.661 36.7394 243.661 34.8624V28.3384H241.206V24.7872H243.661V20.9114H248.247V24.7872H252.184V28.3384H248.247V34.8015C248.247 35.4508 248.44 35.9683 248.764 36.3539C249.089 36.6785 249.607 36.8713 250.246 36.8713C250.956 36.8713 251.605 36.6785 252.123 36.293L253.351 39.5195Z" fill="#EBEBEB"/>
</svg>
