<svg width="796" height="216" viewBox="0 0 796 216" fill="none" xmlns="http://www.w3.org/2000/svg">
<path d="M222 26.0001H258.6C267.9 26.0001 274.7 28.5 279.1 32.8C283.4 36.5 285.3 41.5001 285.3 46.4001C285.3 48.3001 285.3 50.7001 284.7 52.6001C283.5 55.7001 281.6 58.8 279.1 61.3C277.9 62.5 276.6 63.2 275.4 63.8C279.7 65 283.5 67.5001 286.6 70.6001C289.1 73.7001 290.3 77.4001 290.3 83.0001C290.3 86.1001 289.7 89.8 288.4 92.3C287.2 94.8 284.7 97.3001 282.2 99.1001C279.1 101 276 102.2 272.9 103.4C269.2 104.6 264.8 104.6 260.5 104.6H222.6V25.8H222V26.0001ZM255.5 58.2C258.6 58.2 261.7 57.6 264.8 56.3C267.3 55.1 268.5 52.6001 268.5 50.1001C268.5 47.6001 267.3 45.1001 265.4 43.9001C262.9 42.0001 259.8 41.4001 256.7 42.0001H239.3V58.7H255.4V58.2H255.5ZM259.8 89.9001C262.9 89.9001 266 89.3001 269.1 88.0001C271.6 86.8001 272.8 84.3 272.2 81.2C272.2 78.7 271 76.2001 269.1 75.0001C267.2 73.8001 263.5 72.5001 259.2 72.5001H238.7V89.9001H259.8Z" fill="#F3BA2F"/>
<path d="M311.9 26H329.3V105.4H311.9V26Z" fill="#F3BA2F"/>
<path d="M356 26H372.1L409.3 75V26H426.6V105.4H411.8L372.7 55.1V105.4H356V26Z" fill="#F3BA2F"/>
<path d="M479.4 25.4H495.5L529.6 105.4H511.6L504.2 87.4H470.7L463.3 105.4H445.3L479.4 25.4ZM498 72.5L487.5 46.5L477 72.5H498Z" fill="#F3BA2F"/>
<path d="M548.2 26H564.3L601.5 75V26H618.9V105.4H604L565.5 55.1V105.4H548.2V26Z" fill="#F3BA2F"/>
<path d="M682.1 106.6C676.5 106.6 670.9 105.4 666 103.5C656.1 99.2001 648.6 91.7 644.3 81.8C642.4 76.8 641.2 71.3 641.2 65.7C641.2 55.2 645.5 44.6001 653 36.6001C656.7 32.9001 661.1 29.8001 666 27.9001C671.6 25.4001 677.2 24.8 682.7 24.8C685.8 24.8 689.5 24.8001 692.6 25.4001C695.7 26.0001 698.2 26.6001 700.7 27.9001C703.2 29.1001 705.7 30.4001 707.5 31.6001C709.4 32.8001 711.8 34.7001 713.7 36.6001L703.2 49.6001C700.1 47.1001 697 44.6 693.9 42.8C690.8 41 687.1 40.3 683.4 40.3C680.3 40.3 677.2 40.9 674.1 42.2C671 43.4 668.5 45.3 666.7 47.8C664.9 50.3 663 52.8001 661.7 55.9001C660.5 59.0001 659.8 62.1 659.8 65.2C659.8 68.3 660.4 72.0001 661.7 75.1001C663 78.2001 664.2 80.7 666.7 83.2C671 88.2 677.2 90.6001 683.4 90.6001C687.1 90.6001 691.5 90.0001 695.2 88.1001C698.3 86.2001 702 83.8 704.5 81.3L715.6 92.4001C713.7 94.3001 711.3 96.7001 709.4 98.6001C706.9 100.5 704.4 101.7 702 102.9C699.5 104.1 696.4 105.4 693.3 106C688.9 106.6 685.2 106.6 682.1 106.6Z" fill="#F3BA2F"/>
<path d="M735.5 26H795V41.5H752.2V57.6H790V73.1H752.2V89.9H795.6V105.4H735.5V26Z" fill="#F3BA2F"/>
<path d="M244.3 183.5C240 183.5 235.6 182.9 231.9 181C228.2 179.8 224.5 177.3 220.7 174.2L226.9 167.4C229.4 169.9 231.9 171.1 235 173C238.1 174.2 241.2 174.9 244.3 174.9C246.8 174.9 249.3 174.3 251.7 173C253.6 171.8 254.2 169.9 254.2 168C254.2 167.4 254.2 166.1 253.6 165.5C253 164.9 252.4 163.6 251.7 163C250.5 162.4 249.2 161.8 248 161.1C246.1 160.5 243.7 159.9 241.8 159.2C239.3 158.6 236.2 158 233.7 156.7C231.8 156.1 229.4 154.8 228.1 153.6C226.9 152.4 225.6 151.1 224.4 149.3C223.2 146.8 223.2 144.3 223.2 142.5C223.2 140 223.8 138.2 224.4 135.7C225 133.8 226.9 132 228.1 130.7C230 129.5 231.8 128.2 234.3 127.6C236.8 127 239.3 126.4 241.7 126.4C245.4 126.4 249.1 127 252.9 128.3C256 129.5 259.1 131.4 262.2 133.3L257.2 140.7C254.7 138.8 252.2 137.6 249.8 136.4C247.3 135.2 244.8 135.2 242.4 135.2C239.9 135.2 237.4 135.8 235.6 137.1C234.4 138.3 233.1 140.2 233.1 142.1C233.1 143.3 233.1 144 233.7 145.2C234.3 145.8 234.9 147.1 235.6 147.7C236.8 148.3 238.1 148.9 239.9 149.6C241.8 150.2 243.6 150.8 246.7 151.5C249.2 152.1 251.7 152.7 254.8 154C256.7 154.6 258.5 155.9 260.4 157.1C261.6 158.3 262.9 160.2 263.5 161.4C264.1 163.3 264.7 165.1 264.7 167.6C264.7 170.1 264.1 172.6 263.5 174.4C262.3 176.3 261 178.1 259.2 180C257.3 181.2 255.5 182.5 253 183.1C249.9 182.9 246.8 183.5 244.3 183.5Z" fill="#F3BA2F"/>
<path d="M275.3 127.1H285.9L302.6 153.1L320 127.1H330.5V182.9H320.6V142.6L303.2 168.6H302.6L285.3 142.6V182.9H275.3V127.1Z" fill="#F3BA2F"/>
<path d="M364 126.5H373.3L397.5 182.3H387L381.4 168.7H355.4L349.8 182.3H339.9L364 126.5ZM378.3 160.6L368.4 138.3L359.1 160.6H378.3Z" fill="#F3BA2F"/>
<path d="M407.4 127.1H432.2C435.3 127.1 438.4 127.7 441.5 128.3C444 128.9 446.5 130.8 448.3 132.6C449.5 133.8 450.8 135.7 452 138.2C452.6 140.1 453.2 142.5 453.2 145C453.2 146.9 452.6 149.3 452 151.2C451.4 153.1 450.1 154.3 449.5 156.2C448.3 157.4 447 158.7 445.2 159.9C443.3 161.1 441.5 161.8 439.6 162.4L454.5 183.5H442.7L429.1 164.3H416.7V183.5H406.8L407.4 127.1ZM431.6 154.4C434.7 154.4 437.8 153.8 439.7 151.9C441.6 150 442.8 147.6 442.8 145.1C442.8 142.6 441.6 140.1 439.7 138.3C437.2 136.4 434.1 135.8 431 135.8H416.7V154.4H431.6Z" fill="#F3BA2F"/>
<path d="M478.7 135.8H460.7V127.1H506V135.8H488V182.9H478.1L478.7 135.8Z" fill="#F3BA2F"/>
<path d="M566.2 183.5C562.5 183.5 558.8 182.9 555 181C548.2 177.9 542.6 172.9 540.1 166.1C538.9 162.4 537.6 158.7 538.2 154.9C538.2 151.2 538.8 147.5 540.1 143.7C542.6 136.9 548.2 131.3 555 128.2C558.7 127 562.4 125.7 566.8 125.7C569.3 125.7 571.8 125.7 573.6 126.3C575.5 126.9 577.3 127.5 579.2 128.2C581.1 128.8 582.3 130.1 584.2 130.7C585.4 131.9 587.3 133.2 588.5 134.4L582.3 141.8C580.4 139.9 578 138.1 575.5 136.8C573 135.6 569.9 134.9 566.8 134.9C564.3 134.9 561.8 135.5 559.4 136.1C556.9 137.3 555.1 138.6 553.2 140.4C551.3 142.3 550.1 144.1 549.5 146.6C548.9 149.1 548.3 151.6 548.3 154C548.3 156.5 548.9 159 549.5 161.4C550.1 163.8 551.4 165.7 553.2 167.6C555.1 169.5 556.9 170.7 559.4 171.9C561.9 173.1 564.4 173.8 566.8 173.1C569.9 173.1 573 172.5 575.5 171.2C578 170 580.5 168.1 582.9 165.6L589.1 171.8C587.9 173 586 174.9 584.8 176.1C582.9 177.3 581.7 178.6 579.8 179.2C577.9 179.8 576.1 181.1 573.6 181.1C571.1 183.5 568.6 183.5 566.2 183.5Z" fill="#F3BA2F"/>
<path d="M599 127.1H608.3V150H635V127.1H644.9V182.9H635V159.3H608.3V182.9H599V127.1Z" fill="#F3BA2F"/>
<path d="M679 126.5H688.3L712.5 182.3H702L696.4 168.7H670.4L664.8 182.3H654.9L679 126.5ZM692.7 160.6L683.4 138.3L674.1 160.6H692.7Z" fill="#F3BA2F"/>
<path d="M722.4 127.1H732.4V182.9H722.4V127.1Z" fill="#F3BA2F"/>
<path d="M747.2 127.1H755.9L785.7 165.5V127.1H795.6V182.9H787.5L757.2 143.2V182.9H747.2V127.1Z" fill="#F3BA2F"/>
<path d="M112.9 179.2V203.4L91.8 215.8L71.3 203.4V179.2L91.8 191.6L112.9 179.2ZM0 95.5L20.5 107.9V149.4L55.8 170.5V194.7L0 161.8V95.5ZM183.6 95.5V161.9L127.2 194.8V170.6L162.5 149.5V108L183.6 95.5ZM127.1 62.6L148.2 75V99.2L112.9 120.3V162.4L92.4 174.8L72 162.4V120.2L35.4 99.1V74.9L56.5 62.5L91.8 83.6L127.1 62.6ZM35.4 116.5L55.9 128.9V153.1L35.4 140.7V116.5ZM148.2 116.5V140.7L127.7 153.1V128.9L148.2 116.5ZM20.5 41.5L41.6 53.9L20.5 66.3V90.5L0 78.1V53.9L20.5 41.5ZM163.1 41.5L184.2 53.9V78.1L163.1 90.5V66.3L142.6 53.9L163.1 41.5ZM91.8 41.5L112.9 53.9L91.8 66.3L71.3 53.9L91.8 41.5ZM91.8 0L148.2 32.9L127.7 45.3L92.4 24.2L56.4 45.3L35.9 32.9L91.8 0Z" fill="#F3BA2F"/>
</svg>
